<?xml version="1.0" encoding="UTF-8"?>
<svg id="Capa_2" data-name="Capa 2" xmlns="http://www.w3.org/2000/svg" viewBox="0 0 53.9 66.5">
  <defs>
    <style>
      .cls-1 {
        fill: #85004d;
      }
    </style>
  </defs>
  <g id="Capa_1-2" data-name="Capa 1">
    <path class="cls-1" d="M50.54,18.23c-1.08-1.26-2.38-2.26-3.82-2.94V5.67h.62V0h-10.42v5.67h.62v9.62c-1.13.54-2.14,1.27-3.05,2.15-.92-.9-1.95-1.63-3.06-2.15V5.67h.62V0h-10.42v5.67h.62v9.62c-1.08.51-2.07,1.21-2.94,2.06-.9-.85-1.89-1.54-2.96-2.06V5.67h.62V0H6.54v5.67h.62v9.62C2.89,17.35,0,22.21,0,27.57v38.92h53.9V27.57c0-3.51-1.19-6.82-3.36-9.34ZM15.08,27.57v35.3H3.62V27.57c0-4.33,2.44-8.18,5.94-9.35l1.24-.42V3.62h1.92v14.18l1.24.42c1.14.38,2.19,1.08,3.1,2-1.25,2.14-1.97,4.68-1.97,7.35ZM34.98,62.88h-16.26V27.57c0-1.26.21-2.48.59-3.61.26-.78.61-1.52,1.04-2.2.35-.57.77-1.09,1.22-1.56.87-.9,1.91-1.59,3.07-1.98l1.24-.42V3.62h1.94v14.18l1.24.42c1.19.4,2.29,1.15,3.22,2.13.08.09.16.16.24.25.36.42.68.86.95,1.33.44.72.79,1.51,1.04,2.34.31,1.04.48,2.15.48,3.29v35.3ZM50.27,62.88h-11.66V27.57c0-2.6-.66-5.1-1.88-7.24.91-.96,1.99-1.71,3.2-2.11l1.24-.42V3.62h1.94v14.18l1.24.42c1.29.44,2.48,1.26,3.46,2.38,1.6,1.85,2.47,4.32,2.47,6.97v35.3Z"/>
  </g>
</svg>