<?xml version="1.0" encoding="UTF-8"?>
<svg id="Capa_2" data-name="Capa 2" xmlns="http://www.w3.org/2000/svg" viewBox="0 0 155.81 91.86">
  <defs>
    <style>
      .cls-1 {
        fill: #85004d;
      }
    </style>
  </defs>
  <g id="Capa_1-2" data-name="Capa 1">
    <g>
      <path class="cls-1" d="M33.11,91.86C11.04,91.86,0,80.59,0,58.06v-14.86h23.25v15.12c0,4.34.8,7.53,2.4,9.57,1.6,2.04,4.09,3.06,7.46,3.06s5.96-1.01,7.52-3.02c1.56-2.02,2.34-5.22,2.34-9.6V0h23.25v58.06c0,22.53-11.04,33.8-33.11,33.8Z"/>
      <path class="cls-1" d="M146.44,82.65c-6.25,6.14-15.42,9.21-27.52,9.21s-21.27-3.07-27.52-9.21c-6.25-6.14-9.37-15.01-9.37-26.63V0h24.2v56.55c0,4.47,1.13,7.88,3.39,10.22,2.26,2.35,5.36,3.52,9.3,3.52s7.04-1.17,9.27-3.52c2.24-2.34,3.35-5.75,3.35-10.22V0h24.26v56.02c0,11.62-3.12,20.49-9.37,26.63Z"/>
    </g>
  </g>
</svg>