<?xml version="1.0" encoding="UTF-8"?>
<svg id="Capa_2" data-name="Capa 2" xmlns="http://www.w3.org/2000/svg" viewBox="0 0 558.98 218.04">
  <defs>
    <style>
      .cls-1 {
        fill: #85004d;
      }

      .cls-2 {
        fill: #060703;
      }
    </style>
  </defs>
  <g id="Capa_1-2" data-name="Capa 1">
    <g>
      <path class="cls-1" d="M37.47,103.95C12.49,103.95,0,91.2,0,65.71v-16.82h26.32v17.11c0,4.91.91,8.52,2.72,10.83,1.81,2.31,4.62,3.46,8.44,3.46s6.75-1.14,8.51-3.42c1.76-2.28,2.65-5.9,2.65-10.86V0h26.31v65.71c0,25.5-12.49,38.25-37.47,38.25Z"/>
      <path class="cls-1" d="M455.99,101.85h-28.97v-31.36c0-7.39-5.86-13.4-13.06-13.4s-13.06,6.01-13.06,13.4v31.36h-28.97V0h22.61v9.36h8.06V0h22.91v9.36h8.06V0h22.41v101.85ZM433.25,95.45h16.51V6.4h-9.94v9.36h-20.53V6.4h-10.45v9.36h-20.53V6.4h-10.15v89.06h16.5v-24.96c0-10.92,8.65-19.8,19.29-19.8s19.29,8.88,19.29,19.8v24.96Z"/>
      <path class="cls-1" d="M544.67,28.06c-1.65-1.91-3.63-3.45-5.81-4.48v-14.65h.95V.31h-15.87v8.63h.95v14.65c-1.72.82-3.26,1.93-4.65,3.28-1.4-1.37-2.96-2.48-4.66-3.28v-14.65h.95V.31h-15.87v8.63h.95v14.65c-1.65.78-3.15,1.85-4.48,3.13-1.37-1.3-2.88-2.35-4.51-3.13v-14.65h.95V.31h-15.89v8.63h.95v14.65c-6.51,3.13-10.91,10.54-10.91,18.7v59.26h82.06v-59.26c0-5.35-1.81-10.39-5.11-14.22ZM490.69,42.28v53.75h-17.45v-53.75c0-6.59,3.71-12.46,9.04-14.24l1.88-.63V5.82h2.93v21.6l1.88.63c1.73.58,3.33,1.65,4.71,3.05-1.9,3.26-3,7.13-3,11.19ZM520.97,96.04h-24.76v-53.75c0-1.91.32-3.78.9-5.5.4-1.18.93-2.31,1.58-3.35.53-.87,1.17-1.67,1.87-2.38,1.33-1.37,2.91-2.41,4.68-3.01l1.88-.63V5.82h2.95v21.6l1.88.63c1.82.62,3.48,1.75,4.9,3.25.12.13.25.25.37.38.55.63,1.03,1.32,1.45,2.03.67,1.1,1.2,2.3,1.58,3.56.47,1.58.73,3.28.73,5.01v53.75ZM544.25,96.04h-17.75v-53.75c0-3.96-1-7.76-2.86-11.02,1.38-1.47,3.03-2.6,4.88-3.21l1.88-.63V5.82h2.95v21.6l1.88.63c1.96.67,3.78,1.91,5.26,3.63,2.43,2.81,3.76,6.58,3.76,10.61v53.75Z"/>
      <path class="cls-1" d="M161.59,93.54c-7.07,6.95-17.45,10.42-31.14,10.42s-24.07-3.47-31.14-10.42c-7.07-6.94-10.6-16.99-10.6-30.14V0h27.38v63.99c0,5.06,1.28,8.92,3.83,11.57,2.55,2.65,6.06,3.98,10.53,3.98s7.96-1.33,10.49-3.98c2.53-2.65,3.8-6.51,3.8-11.57V0h27.46v63.4c0,13.15-3.53,23.19-10.6,30.14Z"/>
      <path class="cls-1" d="M213.42,33.49v68.61h-27.46V0h50.53l14.96,68.53L266.41,0h50.53v102.09h-27.46V33.49h-8.34l-15.25,68.61h-28.95l-15.18-68.61h-8.34Z"/>
      <path class="cls-1" d="M358.16,0v102.09h-27.46V0h27.46Z"/>
      <path class="cls-1" d="M410.81,194.51v23.44h-38.88v-102.09h27.46v78.65h11.42Z"/>
      <polygon class="cls-1" points="443.75 115.86 416.29 115.86 416.29 217.95 453.65 217.95 459.88 194.51 443.75 194.51 443.75 115.86"/>
      <path class="cls-1" d="M531.82,115.86l27.16,102.09h-28.65l-5.43-23.44h-32.08l-5.65,23.44h-28.65l27.16-102.09h46.14ZM497.07,176.05h23.51l-8.52-36.76h-6.11l-8.88,36.76Z"/>
      <g>
        <path class="cls-2" d="M130.1,155.18c0,4.7-2.35,7.39-6.88,7.39s-6.89-2.69-6.89-7.39v-15.28c0-4.7,2.35-7.39,6.89-7.39s6.88,2.69,6.88,7.39v2.85h-4.37v-3.15c0-2.1-.92-2.9-2.39-2.9s-2.39.8-2.39,2.9v15.87c0,2.1.92,2.85,2.39,2.85s2.39-.76,2.39-2.85v-4.2h4.37v3.91Z"/>
        <path class="cls-2" d="M143.18,162.23l-.8-5.33h-5.67l-.8,5.33h-4.24l4.7-29.39h6.76l4.7,29.39h-4.66ZM141.75,152.91l-2.22-14.86-2.22,14.86h4.45Z"/>
        <path class="cls-2" d="M163.77,140.11v3.82c0,4.7-2.27,7.26-6.89,7.26h-2.18v11.04h-4.62v-29.39h6.8c4.62,0,6.89,2.56,6.89,7.26ZM154.71,146.99h2.18c1.47,0,2.27-.67,2.27-2.77v-4.41c0-2.1-.8-2.77-2.27-2.77h-2.18v9.95Z"/>
        <path class="cls-2" d="M170.75,132.85v29.39h-4.62v-29.39h4.62Z"/>
        <path class="cls-2" d="M187.18,132.85v4.2h-4.83v25.19h-4.62v-25.19h-4.83v-4.2h14.27Z"/>
        <path class="cls-2" d="M198.27,162.23l-.8-5.33h-5.67l-.8,5.33h-4.24l4.7-29.39h6.76l4.7,29.39h-4.66ZM196.84,152.91l-2.22-14.86-2.22,14.86h4.45Z"/>
        <path class="cls-2" d="M209.8,132.85v25.19h7.6v4.2h-12.22v-29.39h4.62Z"/>
        <path class="cls-2" d="M124.01,171.57c4.62,0,6.88,2.56,6.88,7.26v14.86c0,4.7-2.27,7.26-6.88,7.26h-7.31v-29.39h7.31ZM121.33,196.76h2.6c1.47,0,2.35-.76,2.35-2.85v-15.28c0-2.1-.88-2.86-2.35-2.86h-2.6v20.99Z"/>
        <path class="cls-2" d="M144.56,183.96v4.2h-6.34v8.61h7.98v4.2h-12.6v-29.39h12.6v4.2h-7.98v8.19h6.34Z"/>
        <path class="cls-2" d="M160.18,171.57v25.19h7.6v4.2h-12.22v-29.39h4.62Z"/>
        <path class="cls-2" d="M180.87,200.96l-.8-5.33h-5.67l-.8,5.33h-4.24l4.7-29.39h6.76l4.7,29.39h-4.66ZM179.45,191.64l-2.22-14.86-2.22,14.86h4.45Z"/>
        <path class="cls-2" d="M207.12,171.57h6.42v29.39h-4.37v-21.08l-3.19,21.08h-4.37l-3.44-20.78v20.78h-4.03v-29.39h6.42l3.4,20.87,3.15-20.87Z"/>
        <path class="cls-2" d="M223.33,171.24c4.53,0,7.01,2.69,7.01,7.39v15.28c0,4.7-2.48,7.39-7.01,7.39s-7.01-2.69-7.01-7.39v-15.28c0-4.7,2.48-7.39,7.01-7.39ZM223.33,197.1c1.47,0,2.39-.8,2.39-2.9v-15.87c0-2.1-.92-2.9-2.39-2.9s-2.39.8-2.39,2.9v15.87c0,2.1.92,2.9,2.39,2.9Z"/>
        <path class="cls-2" d="M237.22,200.96h-4.16v-29.39h5.79l4.74,17.59v-17.59h4.11v29.39h-4.74l-5.75-21.28v21.28Z"/>
        <path class="cls-2" d="M261.45,200.96l-.8-5.33h-5.67l-.8,5.33h-4.24l4.7-29.39h6.76l4.7,29.39h-4.66ZM260.02,191.64l-2.22-14.86-2.22,14.86h4.45Z"/>
        <path class="cls-2" d="M274.53,171.24c4.49,0,6.8,2.69,6.8,7.39v.92h-4.37v-1.22c0-2.1-.84-2.9-2.31-2.9s-2.31.8-2.31,2.9c0,6.05,9.03,7.18,9.03,15.58,0,4.7-2.35,7.39-6.88,7.39s-6.89-2.69-6.89-7.39v-1.81h4.37v2.1c0,2.1.92,2.85,2.39,2.85s2.39-.76,2.39-2.85c0-6.05-9.03-7.18-9.03-15.58,0-4.7,2.31-7.39,6.8-7.39Z"/>
        <path class="cls-2" d="M297.36,171.57v4.2h-4.83v25.19h-4.62v-25.19h-4.83v-4.2h14.27Z"/>
        <path class="cls-2" d="M308.78,197.35v-4.62c0-2.73-.92-3.74-3.02-3.74h-1.59v11.96h-4.62v-29.39h6.97c4.79,0,6.84,2.23,6.84,6.76v2.31c0,3.02-.97,5-3.02,5.96,2.31.97,3.06,3.19,3.06,6.26v4.53c0,1.43.04,2.48.5,3.57h-4.7c-.25-.76-.42-1.22-.42-3.61ZM304.17,184.8h1.81c1.72,0,2.77-.76,2.77-3.11v-2.9c0-2.1-.71-3.02-2.35-3.02h-2.22v9.03Z"/>
        <path class="cls-2" d="M327.3,183.96v4.2h-6.34v8.61h7.98v4.2h-12.6v-29.39h12.6v4.2h-7.98v8.19h6.34Z"/>
        <path class="cls-2" d="M336.16,171.57v25.19h7.6v4.2h-12.22v-29.39h4.62Z"/>
        <path class="cls-2" d="M350.56,171.57v25.19h7.6v4.2h-12.22v-29.39h4.62Z"/>
      </g>
      <path class="cls-1" d="M96.34,162.98c-.93-1.45-2.46-3.41-4.54-4.73.23-1.27-.48-1.85-.81-2.05h0c-1.12-.67-2.38-1.09-3.61-1.19.02-.54-.07-1.07-.26-1.6-.21-.59-.68-.99-1.32-1.15-1.89-.46-3.89-.16-5.65.81.28-1.12.28-2.17.02-3.13-.16-.58-.53-1-1.05-1.21-1.24-.48-2.52-.72-3.8-.73-3.15,0-6.18,1.32-8.21,3.55-.51-.33-1.05-.57-1.61-.71-.81-.2-1.58.15-1.9.85-.81,1.55-1.32,3.11-1.5,4.65-.07.6-.05,1.16,0,1.71-.75-.32-1.51-.68-2.14-1.18-1.9-1.51-1.63-4.48-1.31-6.11.39-1.94,1.24-3.23,2.57-4.79.44-.51.89-1.03,1.36-1.56,3.3-3.75,7.05-8,6.26-13.67-.84-6.09-6.96-8.64-12.29-7.96-3.26.42-6.72,1.6-10.49,3.52.05-1.26-.03-2.52-.36-3.78-.15-.76-.77-1.28-1.55-1.31-.61-.02-1.23.08-1.83.29-1.37-2.55-3.88-4.54-6.79-5.35-1.34-.37-2.73-.48-4.13-.3-.58.07-1.06.4-1.34.91-.49.87-.74,1.87-.74,2.95,0,.07,0,.13,0,.2-.56-.51-1.17-.94-1.84-1.29-1.07-.55-2.2-.84-3.36-.86-.73-.01-1.33.34-1.69,1-.23.43-.4.89-.5,1.38-1.21-.2-2.52-.1-3.74.27-.79.21-1.27.88-1.34,1.81-1.82.6-3.64,1.73-5.53,3.46-.5.45-.66,1.2-.4,1.82.51,1.19,1.31,2.29,2.28,3.15-.06.11-.11.22-.16.34-.32.84-.11,1.74.56,2.33-.32.11-.63.23-.91.37-.84.42-1.26,1.25-1.11,2.15.05.29.14.57.26.85-1.62,1.11-1.74,2.54-1.66,3.32.06.58.22,1.17.47,1.8.27.61.19,1.21-.2,1.75-.76,1.08-1.23,2.17-1.43,3.34-.05.31-.02.61.08.89.01.04.03.07.05.11.15.32.41.58.74.76,1.1.6,2.29.97,3.64,1.12.59.07,1.09.42,1.39.99.13.24.28.44.42.64-.85.03-1.7.14-2.56.34-7.01,1.65-11.38,8.7-9.73,15.72.66,2.8,2.18,5.17,4.21,6.92-.75.35-1.47.77-2.15,1.27-2.69,1.97-4.44,4.87-4.95,8.16-.51,3.3.3,6.59,2.27,9.27.8,1.09,1.76,2.02,2.83,2.79-2.43,1.96-4.01,4.71-4.49,7.81-.51,3.3.3,6.59,2.27,9.27,1.97,2.68,4.87,4.44,8.16,4.94,1.6.24,3.19.18,4.75-.18,1.63-.38,3.15-1.08,4.51-2.08,2.69-1.97,4.45-4.87,4.95-8.16.03-.16.05-.33.06-.49,1.3.74,2.74,1.25,4.27,1.48,1.6.24,3.2.18,4.75-.19,1.63-.38,3.15-1.08,4.51-2.08,2.76-2.03,4.45-4.99,4.94-8.13,2.82,1.89,6.35,2.58,9.79,1.78,1.63-.38,3.15-1.09,4.51-2.08,3.42-2.51,5.18-6.45,5.07-10.4.27.44.56.88.91,1.27.53.63,1.33.78,2.21.45,1.31,1.4,3.11,2.56,5.47,3.54.62.26,1.37.09,1.82-.41.86-.96,1.52-2.16,1.89-3.4.12,0,.25,0,.37,0,.9-.06,1.63-.64,1.88-1.49.23.24.48.47.72.67.74.58,1.66.61,2.41.09.24-.17.46-.37.65-.6,1.69,1,3.04.5,3.71.1.5-.3.97-.69,1.43-1.19.44-.5,1.01-.68,1.68-.56,1.3.23,2.48.19,3.62-.12.3-.08.56-.24.77-.45.03-.03.05-.06.08-.09.22-.27.35-.61.38-.99.08-1.25-.09-2.48-.53-3.77-.19-.57-.08-1.16.3-1.68.49-.66.81-1.3.99-1.97.22-.82.22-2.02-.91-3.27.3-.37.51-.77.59-1.15.12-.54.02-1.06-.28-1.48-.27-.37-.68-.73-1.21-1.06.19-.11.35-.23.5-.36.51-.48.72-1.13.61-1.83-.02-.1-.04-.19-.06-.29,1.17-.62,2.17-1.46,2.96-2.49.4-.51.42-1.26.06-1.82ZM15.42,145.76c-.42-.05-.8-.13-1.17-.25.13-.29.28-.57.47-.84.54-.78.83-1.61.87-2.47.03-.81-.19-1.41-.37-1.91-.12-.33-.21-.59-.21-.85,0-.02,0-.06.11-.15.3-.25.68-.44,1.16-.58.48-.14.87-.55.99-1.03.07-.28.05-.57-.06-.83-.01-.03-.03-.07-.04-.1-.08-.17-.19-.32-.33-.45,1.39-.29,2.77-.1,4.19.14l1.36.17c.84.11,2.34-.11,3.01-1.14.4-.62.37-1.4-.09-1.97-.25-.31-.59-.57-.95-.72-.38-.16-.88-.34-1.47-.36l-3.63-.16c-.33-.01-.7-.07-1.05-.15.18-.22.28-.46.31-.65.1-.5-.12-1.18-.7-1.47-.74-.37-1.38-.93-1.87-1.65l.18-.15c1.12-.93,2.61-1.67,3.8-1.87.41-.07.75-.27.96-.59.23-.34.25-.69.22-.98.87-.1,1.67.04,2.37.43.53.29,1.23.2,1.67-.23.17-.16.54-.62.38-1.4-.06-.28-.08-.55-.06-.79.56.13,1.1.39,1.62.77.66.49,1.22,1.19,1.66,2.08.41.89.92,1.88,1.75,2.33.83.45,1.81.18,2.28-.64.45-.78.26-1.76.04-2.53l-.05-.19c-.16-.57-.31-1.1-.44-1.66-.14-.61-.2-1.43-.05-2.06,1.49-.03,3,.45,4.27,1.37,1.2.87,2.04,1.99,2.44,3.25.14.43.48.79.9.94.42.15.91.08,1.31-.18.14-.09.27-.17.39-.23.17,1.45,0,2.76-.5,3.66-.29.51-.73.87-1.22,1-.4.1-.87.11-1.37.13-.56.01-1.14.03-1.75.16-1.21.27-2.18.93-2.73,1.84-.34.56-.5,1.2-.48,1.86l-.9.43-4.29-2.57c-.66-.4-1.43-.1-1.78.42-.21.3-.28.68-.2,1.04.02.1.05.19.1.29.11.23.28.42.51.56l2.76,1.66-7.98,3.8c-.73.35-.92,1.19-.67,1.8.15.36.44.64.79.77.35.14.74.12,1.08-.04l7.98-3.8-.47,3.18c-.04.26,0,.52.11.75.04.09.1.18.16.25.23.29.57.47.94.5.58.05,1.25-.3,1.42-.98l.76-5.1.9-.43c.46.41,1.01.68,1.62.79,1.02.19,2.11-.09,3.08-.77.6-.43,1.02-.92,1.42-1.38.28-.33.55-.64.86-.9.98-.83,2.29-.31,2.99.08.65.36,1.26.84,1.83,1.43-.13.06-.27.11-.43.16-.44.14-.78.45-.94.85-.17.42-.11.93.15,1.34.54.87.85,1.73.94,2.64.21,2.1-.34,3.99-1.59,5.48-.56-.28-1.21-.83-1.61-1.39l-1.05-1.45-.69-.85c-.28-.34-.68-.59-1.14-.72-.47-.13-.97-.05-1.37.21-.4.26-.67.69-.74,1.17-.08.5-.02,1.03.18,1.49l.51,1.22c.25.59.49,1.15.59,1.74.17,1,.03,1.99-.39,2.82-.18-.13-.36-.31-.54-.54-.35-.44-.91-.66-1.42-.54-.57.13-1.02.59-1.12,1.14-.15.8-.52,1.49-1.16,2.11-.21-.21-.49-.41-.9-.45-.38-.03-.76.1-1.08.39-1.13,1-2.77,1.53-4.06,1.8-.25-.81-.29-1.57-.11-2.37.12-.54-.04-1.05-.43-1.41-.26-.23-.6-.35-.94-.35.18-.36.37-.72.62-1.04l1.51-1.98c.57-.74,1.27-1.66,1.32-2.87v-.04c0-.2-.03-.8-.56-1.33-.05-.05-.11-.1-.17-.13-.82-.54-1.85-.39-2.76.39-.6.52-.99,1.12-1.33,1.7l-1.21,2.01c-.46.67-.97,1.24-1.55,1.71-.04-.48-.28-.89-.67-1.13-.47-.29-1.1-.27-1.56.06-.4.28-.79.46-1.19.53-.1.02-.13,0-.18-.05-.18-.16-.33-.36-.45-.58-.26-.47-.65-1.08-1.26-1.55-.66-.51-1.44-.82-2.33-.92ZM23.35,153.85s-.03-.02-.04-.03c.01,0,.02-.01.03-.02,0,.02,0,.03,0,.04ZM19.94,206.62c-.28,1.83-1.26,3.44-2.75,4.54-.77.56-1.62.95-2.52,1.16-.85.2-1.75.24-2.64.1-1.83-.28-3.44-1.26-4.54-2.75-1.1-1.49-1.55-3.33-1.27-5.16.28-1.83,1.26-3.44,2.75-4.54.77-.56,1.62-.95,2.51-1.16.86-.2,1.75-.24,2.64-.1,1.83.28,3.45,1.26,4.54,2.75,1.1,1.49,1.55,3.33,1.26,5.16ZM19.33,186.76c-.28,1.83-1.26,3.44-2.75,4.54-.77.56-1.62.95-2.51,1.16-.85.2-1.75.24-2.64.1-1.83-.28-3.44-1.26-4.54-2.75-1.1-1.49-1.55-3.33-1.26-5.16.28-1.83,1.26-3.45,2.75-4.54.77-.56,1.62-.95,2.51-1.16.85-.2,1.75-.24,2.65-.1,1.83.28,3.44,1.26,4.54,2.75,1.1,1.49,1.55,3.33,1.26,5.16ZM17.48,171.81c-4.05.95-8.12-1.56-9.07-5.61-.95-4.05,1.57-8.11,5.61-9.07,4.05-.95,8.12,1.56,9.07,5.61.95,4.05-1.57,8.12-5.61,9.07ZM35.73,201.73c-.77.56-1.62.95-2.51,1.16-.86.2-1.75.24-2.64.1-1.83-.28-3.44-1.26-4.54-2.75-2.26-3.09-1.6-7.44,1.49-9.7.77-.57,1.63-.95,2.51-1.16,2.63-.62,5.5.33,7.19,2.65,2.26,3.09,1.6,7.44-1.49,9.7ZM37.8,181.47c-.77.57-1.63.95-2.51,1.16-2.63.62-5.5-.34-7.19-2.65-2.26-3.08-1.6-7.43,1.49-9.7.77-.57,1.63-.95,2.51-1.16,2.63-.62,5.5.34,7.19,2.65,2.26,3.08,1.6,7.44-1.49,9.7ZM30.82,163.74c-.69.16-1.36.38-2,.66,0-.97-.11-1.94-.34-2.92-.09-.4-.21-.79-.34-1.17,1.68-.26,3.9-.8,5.84-2.05,1.05.74,1.88.35,2.2.13h0c1.08-.73,1.99-1.7,2.61-2.76.48.24,1,.39,1.56.44.62.06,1.19-.19,1.6-.71,1.22-1.52,1.8-3.45,1.66-5.46.9.72,1.84,1.17,2.83,1.35.59.1,1.14-.06,1.54-.45.96-.92,1.73-1.98,2.27-3.14,1.34-2.85,1.42-6.16.26-8.94.52-.32.96-.71,1.33-1.16.52-.65.53-1.5.04-2.08-1.06-1.39-2.26-2.51-3.57-3.32-.48-.3-.97-.53-1.46-.72.88-.48,1.83-.98,2.83-1.42,3.19-1.42,7.15-3.18,10.59-2.31,1.51.38,2.63,1.2,3.23,2.37.69,1.35.69,3.08-.01,4.87-.9,2.29-2.56,4.11-4.33,6.03-.7.76-1.4,1.53-2.04,2.32-2.81,3.43-5.15,9.29-2.49,14.53.64,1.26,1.56,2.28,2.83,3.15-1.06.47-2.08,1.05-3.01,1.81-.62.46-.84,1.25-.53,1.96.24.56.59,1.08,1.04,1.54-1.73,2.32-2.47,5.43-1.97,8.42.04.26.14.5.21.76-1.69-.32-3.46-.31-5.21.1-.63.15-1.25.35-1.85.59.06-2.66-.71-5.36-2.41-7.66-2.96-4.04-8.03-5.91-12.92-4.76ZM54.97,193.29c-.78.57-1.63.95-2.51,1.16-2.63.62-5.49-.34-7.19-2.65-1.1-1.49-1.55-3.33-1.26-5.16.28-1.83,1.26-3.44,2.75-4.54.77-.57,1.63-.95,2.51-1.16,2.63-.62,5.5.34,7.19,2.65,2.26,3.08,1.6,7.44-1.49,9.7ZM88.96,165.5c-.54.12-.93.48-1.09.98-.1.33-.07.68.08,1-.4,0-.81-.03-1.2-.12l-2.42-.52c-.91-.2-2.03-.44-3.14.02h-.03c-.17.11-.71.38-.96,1.08-.02.07-.04.14-.05.21-.14.97.43,1.83,1.52,2.32.72.32,1.43.42,2.09.48l2.32.24c.8.13,1.52.35,2.2.68-.42.24-.69.63-.74,1.08-.07.55.22,1.1.72,1.38.42.24.74.52.98.85.06.08.06.12.03.18-.07.23-.19.45-.33.66-.31.44-.7,1.03-.87,1.79-.18.81-.13,1.65.15,2.49.13.4.22.78.27,1.16-.31,0-.63-.02-.96-.07-.93-.16-1.8-.08-2.59.26-.74.31-1.19.76-1.57,1.13-.25.24-.44.44-.68.54-.02.01-.06.03-.18-.03-.35-.16-.68-.42-1.01-.8-.33-.38-.86-.56-1.34-.46-.28.06-.53.2-.72.4-.03.03-.05.05-.07.08-.12.14-.21.3-.27.48-.84-1.13-1.26-2.45-1.64-3.83l-.42-1.29c-.26-.81-1.08-2.06-2.3-2.23-.73-.1-1.41.26-1.74.91-.18.36-.27.77-.25,1.16.02.4.07.94.29,1.47l1.39,3.33c.13.3.23.66.31,1.01-.27-.07-.53-.05-.71,0-.49.12-1.02.6-1.03,1.25-.02.83-.26,1.64-.7,2.38l-.22-.1c-1.31-.61-2.6-1.65-3.29-2.63-.24-.34-.56-.56-.93-.62-.4-.06-.72.06-.98.22-.46-.75-.67-1.52-.61-2.32.04-.6-.34-1.19-.91-1.41-.22-.08-.79-.23-1.42.25-.19.15-.39.24-.58.33-.04-.08-.09-.15-.13-.23-.07-.47-.07-.97.04-1.5.16-.8.56-1.6,1.17-2.37.63-.75,1.31-1.62,1.36-2.56.06-.94-.6-1.7-1.53-1.78-.89-.08-1.69.51-2.29,1.02l-.15.13c-.44.38-.86.74-1.31,1.09-.49.38-1.21.78-1.83.91-.66-1.33-.86-2.89-.56-4.43.28-1.44.94-2.68,1.9-3.57.33-.31.51-.77.47-1.21-.04-.44-.31-.85-.72-1.11-.14-.09-.27-.17-.38-.26,1.23-.77,2.49-1.16,3.51-1.09.58.04,1.1.29,1.42.68.26.32.47.74.69,1.18.25.5.5,1.02.89,1.51.75.97,1.75,1.57,2.81,1.68.65.07,1.29-.05,1.88-.35l.77.63-.51,4.94c-.08.76.51,1.33,1.12,1.43.36.06.73-.03,1.02-.25.08-.06.15-.13.22-.21.16-.19.26-.43.29-.69l.33-3.18,6.78,5.58c.62.51,1.46.32,1.9-.16.26-.29.39-.66.37-1.04-.02-.38-.2-.72-.49-.96l-6.78-5.59,3.06-.92c.25-.07.46-.22.62-.41.06-.08.12-.16.16-.25.16-.33.19-.71.06-1.06-.2-.55-.8-1-1.48-.87l-4.91,1.47-.76-.63c.18-.59.19-1.2.03-1.79-.26-1-.97-1.87-1.99-2.44-.64-.36-1.25-.53-1.85-.7-.41-.12-.8-.23-1.18-.4-1.16-.53-1.24-1.94-1.19-2.73.05-.74.23-1.49.51-2.25.11.09.22.2.33.32.31.33.74.51,1.16.49.45-.02.89-.29,1.14-.7.56-.86,1.2-1.5,1.98-1.96,1.8-1.08,3.73-1.38,5.61-.88-.02.62-.24,1.44-.57,2.04l-.86,1.55-.47.98c-.19.4-.25.86-.17,1.33.08.48.37.9.77,1.15.4.25.9.31,1.36.18.49-.14.94-.42,1.26-.79l.88-.98c.43-.47.83-.92,1.32-1.26.83-.58,1.78-.87,2.71-.83-.04.21-.12.45-.25.71-.25.51-.21,1.1.11,1.51.35.46.96.67,1.5.53.78-.21,1.56-.15,2.39.16-.1.27-.17.62-.03,1,.13.36.41.64.81.81,1.38.6,2.54,1.85,3.34,2.9-.63.57-1.3.92-2.08,1.1Z"/>
    </g>
  </g>
</svg>