<?xml version="1.0" encoding="UTF-8"?>
<svg id="Capa_2" data-name="Capa 2" xmlns="http://www.w3.org/2000/svg" viewBox="0 0 102.69 33.91">
  <defs>
    <style>
      .cls-1 {
        fill: #fff;
      }
    </style>
  </defs>
  <g id="Capa_1-2" data-name="Capa 1">
    <g>
      <g>
        <path class="cls-1" d="M34.64,15.46l-.51-1.47h-2.81l-.53,1.47h-1.79l3.22-7.89h1.31l2.97,7.89h-1.86ZM31.8,12.68h1.88l-.91-2.65h-.01l-.96,2.65Z"/>
        <path class="cls-1" d="M37.84,9.53l1.2,3.53h.02l1.22-3.53h1.74l-3.34,8.65-1.43-.55.95-2.51-2.1-5.58h1.75Z"/>
        <path class="cls-1" d="M46.58,15.46l-.12-.81c-.47.67-1.18.95-1.84.95s-1.21-.3-1.58-.78c-.46-.6-.53-1.36-.53-2.21v-3.08h1.6v3c0,.44.01.94.18,1.27.15.29.44.42.79.42.47,0,.99-.27,1.29-.76v-3.93h1.6v5.93h-1.39Z"/>
        <path class="cls-1" d="M50.71,9.53l.12.81c.47-.67,1.18-.95,1.84-.95s1.21.3,1.58.78c.46.6.53,1.36.53,2.21v3.08h-1.6v-3c0-.44-.01-.94-.18-1.27-.15-.29-.44-.42-.79-.42-.47,0-.99.27-1.29.76v3.93h-1.6v-5.93h1.39Z"/>
        <path class="cls-1" d="M57.75,10.86v2.3c0,.18,0,.34.02.51.05.35.18.56.52.56.25,0,.44-.07.64-.17l.5,1.18c-.38.23-.95.35-1.41.35-.92,0-1.54-.51-1.76-1.27-.09-.29-.11-.64-.11-.99v-2.47h-.71v-1.33h.71l.25-1.31h1.35v1.31h1.51v1.33h-1.51Z"/>
        <path class="cls-1" d="M63.68,15.46l-.12-.51c-.38.47-.98.64-1.61.64-1.1,0-2.13-.67-2.13-1.88,0-1.45,1.35-1.92,2.58-1.92.33,0,.7.05,1.07.12v-.09c0-.74-.3-1.2-1.17-1.2-.68,0-1.27.25-1.79.52l-.43-1.15c.76-.37,1.67-.61,2.55-.61,1.65,0,2.45.96,2.45,2.5v3.56h-1.39ZM63.47,12.88c-.3-.07-.56-.1-.81-.1-.59,0-1.27.21-1.27.91,0,.52.43.79.9.79s.85-.2,1.18-.51v-1.09Z"/>
        <path class="cls-1" d="M73.74,15.46v-3c0-.44-.01-.94-.18-1.27-.15-.29-.43-.42-.79-.42-.42,0-.87.25-1.16.68.03.29.06.61.06.94v3.08h-1.6v-3c0-.44,0-.95-.18-1.29-.15-.28-.42-.41-.76-.41-.39,0-.85.25-1.14.59v4.1h-1.6v-5.93h1.39l.11.72c.47-.6,1.13-.86,1.71-.86.68,0,1.38.39,1.68.99.55-.79,1.33-.99,1.97-.99s1.18.29,1.56.77c.46.6.53,1.36.53,2.22v3.08h-1.6Z"/>
        <path class="cls-1" d="M76.68,8.71v-1.36h1.6v1.36h-1.6ZM76.68,15.46v-5.93h1.6v5.93h-1.6Z"/>
        <path class="cls-1" d="M80.9,12.89c.11.81.64,1.42,1.49,1.42.77,0,1.16-.32,1.54-.88l1.05.71c-.68.98-1.43,1.45-2.71,1.45-1.79,0-3-1.25-3-3.03s1.31-3.17,3.01-3.17,2.86,1.16,2.86,2.74c0,.24-.03.52-.08.76h-4.17ZM83.51,11.8c-.03-.71-.53-1.15-1.18-1.15-.77,0-1.18.48-1.35,1.15h2.54Z"/>
        <path class="cls-1" d="M87.55,9.53l.12.81c.47-.67,1.18-.95,1.84-.95s1.21.3,1.58.78c.46.6.53,1.36.53,2.21v3.08h-1.6v-3c0-.44-.01-.94-.18-1.27-.15-.29-.44-.42-.79-.42-.47,0-.99.27-1.29.76v3.93h-1.6v-5.93h1.39Z"/>
        <path class="cls-1" d="M94.59,10.86v2.3c0,.18,0,.34.02.51.05.35.18.56.52.56.25,0,.44-.07.64-.17l.5,1.18c-.38.23-.95.35-1.41.35-.92,0-1.54-.51-1.76-1.27-.09-.29-.11-.64-.11-.99v-2.47h-.71v-1.33h.71l.25-1.31h1.35v1.31h1.51v1.33h-1.51Z"/>
        <path class="cls-1" d="M102.69,12.5c0,1.75-1.3,3.1-3.1,3.1s-3.11-1.35-3.11-3.1,1.3-3.1,3.11-3.1,3.1,1.35,3.1,3.1ZM99.59,10.77c-.88,0-1.48.76-1.48,1.73s.6,1.72,1.48,1.72,1.47-.76,1.47-1.72-.59-1.73-1.47-1.73Z"/>
        <path class="cls-1" d="M33.97,26.65l-.14-.73c-.42.65-1.22.87-1.83.87-1.57,0-2.76-1.4-2.76-3.12s1.17-3.08,2.78-3.08c.56,0,1.27.2,1.72.71v-3.1h1.6v8.46h-1.39ZM33.75,22.6c-.41-.47-.88-.64-1.38-.64-1.03,0-1.5.91-1.5,1.75s.56,1.7,1.48,1.7c.51,0,1.05-.19,1.4-.78v-2.03Z"/>
        <path class="cls-1" d="M37.86,24.08c.11.81.64,1.42,1.49,1.42.77,0,1.16-.32,1.54-.88l1.05.71c-.68.98-1.43,1.45-2.71,1.45-1.79,0-3-1.25-3-3.03s1.31-3.17,3.01-3.17,2.86,1.16,2.86,2.74c0,.24-.03.52-.08.76h-4.17ZM40.48,22.98c-.03-.71-.53-1.15-1.18-1.15-.77,0-1.18.48-1.35,1.15h2.54Z"/>
        <path class="cls-1" d="M48.26,24.55c0,.74-.15,1.32-.51,1.7-.33.35-.83.53-1.57.53-.41,0-1-.12-1.48-.36l.51-1.27c.26.15.48.23.78.23s.45-.09.54-.24c.1-.18.11-.45.11-.78v-5.6h1.61v5.79Z"/>
        <path class="cls-1" d="M53.54,26.65l-.12-.81c-.47.67-1.18.95-1.84.95s-1.21-.3-1.58-.78c-.46-.6-.53-1.36-.53-2.21v-3.08h1.6v3c0,.44.01.94.18,1.27.15.29.44.42.79.42.47,0,.99-.27,1.29-.76v-3.93h1.6v5.93h-1.39Z"/>
        <path class="cls-1" d="M63.64,26.65v-3c0-.44-.01-.94-.18-1.27-.15-.29-.43-.42-.79-.42-.42,0-.87.25-1.16.68.03.29.06.61.06.94v3.08h-1.6v-3c0-.44,0-.95-.18-1.29-.15-.28-.42-.41-.76-.41-.39,0-.85.25-1.14.59v4.1h-1.6v-5.93h1.39l.11.72c.47-.6,1.13-.86,1.71-.86.68,0,1.38.39,1.68.99.55-.79,1.33-.99,1.97-.99s1.18.29,1.56.77c.46.6.53,1.36.53,2.22v3.08h-1.6Z"/>
        <path class="cls-1" d="M66.58,19.89v-1.36h1.6v1.36h-1.6ZM66.58,26.65v-5.93h1.6v5.93h-1.6Z"/>
        <path class="cls-1" d="M71.13,26.65h-1.6v-8.46h1.6v8.46Z"/>
        <path class="cls-1" d="M74.07,26.65h-1.6v-8.46h1.6v8.46Z"/>
        <path class="cls-1" d="M78.99,26.65l-.12-.51c-.38.47-.98.64-1.61.64-1.1,0-2.13-.67-2.13-1.88,0-1.45,1.35-1.92,2.58-1.92.33,0,.7.05,1.07.12v-.09c0-.74-.3-1.2-1.17-1.2-.68,0-1.27.25-1.79.52l-.43-1.15c.76-.37,1.67-.61,2.55-.61,1.65,0,2.45.96,2.45,2.5v3.56h-1.39ZM78.78,24.07c-.3-.07-.56-.1-.81-.1-.59,0-1.27.21-1.27.91,0,.52.43.79.9.79s.85-.2,1.18-.51v-1.09Z"/>
      </g>
      <g>
        <path class="cls-1" d="M11.78,4.1c3.33,0,6.58.33,9.73.95l.71-4.04-1.93-.34-.76,1.78c-.65-.1-1.3-.18-1.96-.25V.3l-2.19-.19-.33,1.87c-.67-.04-1.34-.07-2.01-.09l-.16-1.89h-2.2l-.16,1.89c-.67.02-1.34.05-2.01.09l-.33-1.87-2.19.19v1.9c-.66.07-1.31.16-1.96.25l-.76-1.78-1.93.34.71,4.04c3.15-.62,6.4-.95,9.73-.95Z"/>
        <path class="cls-1" d="M0,7.57v14.56h0c0,6.5,5.27,11.78,11.78,11.78s11.78-5.27,11.78-11.78h0V7.57H0ZM21.87,11.36h-6.31v-2.1h6.31s0,2.1,0,2.1ZM21.87,20.45v1h-6.31v-2.1h6.31v1.1h0ZM15.56,29.44h3.16c-.91.86-1.98,1.56-3.16,2.04v-2.04ZM15.56,28.18v-2.1h5.5c-.32.75-.73,1.46-1.22,2.1h-4.29ZM15.56,24.82v-2.1h6.29c-.04.72-.16,1.43-.35,2.1h-5.94ZM15.56,18.09v-2.1h6.31v2.1h-6.31ZM15.56,14.72v-2.1h6.31v2.1h-6.31ZM1.68,22.13v-12.87h12.62s0,22.65,0,22.65c-.81.21-1.65.32-2.53.32-5.57,0-10.09-4.53-10.09-10.09Z"/>
        <polygon class="cls-1" points="7.34 19.12 6.65 19.98 7.18 19.98 6.54 20.77 7.1 20.77 6.85 22.13 5.98 23.02 5.9 23.22 4.69 22 4.69 19.89 5 19.59 5.52 19.59 5.52 19.85 5.34 20.06 5.34 20.97 5.98 21.62 5.78 20.99 6.14 20.49 6.14 19.94 6.01 19.82 6.01 19.11 4.79 19.11 4.21 19.7 4.21 22.27 5.69 23.75 4.69 26.24 6.39 28.09 7.59 27.35 7.11 27.09 6.35 27.21 5.98 26.24 7.27 24.96 7.54 25.92 8.87 27.43 10.32 26.95 9.84 26.51 9.06 26.55 8.73 25.6 9 24.58 7.92 23.67 9.21 23.67 10.8 24 11.55 24.46 11.51 24 11.21 23.71 12.1 23.4 11.75 23.28 11.25 23.35 11.75 22.71 11.08 22.94 10.73 23.35 9.79 23.01 10.19 21.74 11.3 20.38 12.06 20.85 12.03 20.38 11.73 20.1 12.62 19.79 12.26 19.67 11.76 19.74 12.26 19.1 11.6 19.33 11.2 19.79 9.21 21.09 8.98 20.63 9.38 20.43 9.53 20.61 9.63 20.14 8.82 20.15 8.77 19.87 9.74 19.7 9.84 19.12 8.14 18.71 7.73 18.81 7.25 18.51 7.34 19.12"/>
        <polygon class="cls-1" points="6.94 12.41 6.94 13.04 6.2 13.04 6.2 11.78 5.57 11.78 5.57 13.04 4.84 13.04 4.84 12.41 4.21 12.41 4.21 13.04 4.21 13.28 4.21 16.41 5.57 16.41 5.57 14.72 6.2 14.72 6.2 16.41 7.57 16.41 7.57 13.28 7.57 13.04 7.57 12.41 6.94 12.41"/>
        <path class="cls-1" d="M10.41,13.36v-.32h.63v-.63h-.63v-.63h-.63v.63h-.63v.63h.63v.32l-1.37,1.37v1.68h3.36v-1.68l-1.37-1.37ZM10.41,15.56h-.63v-.84h.63v.84Z"/>
      </g>
    </g>
  </g>
</svg>