<?xml version="1.0" encoding="UTF-8"?>
<svg id="Capa_2" data-name="Capa 2" xmlns="http://www.w3.org/2000/svg" viewBox="0 0 195.08 302.38">
  <defs>
    <style>
      .cls-1 {
        fill: #f4f4f4;
      }
    </style>
  </defs>
  <g id="Capa_1-2" data-name="Capa 1">
    <g>
      <g>
        <path class="cls-1" d="M11.13,265.19c0,3.79-1.9,5.96-5.55,5.96S.02,268.98.02,265.19v-12.33c0-3.79,1.9-5.96,5.55-5.96s5.55,2.17,5.55,5.96v2.3h-3.52v-2.54c0-1.69-.74-2.34-1.93-2.34s-1.93.64-1.93,2.34v12.8c0,1.69.75,2.3,1.93,2.3s1.93-.61,1.93-2.3v-3.39h3.52v3.15Z"/>
        <path class="cls-1" d="M21.68,270.87l-.64-4.3h-4.57l-.64,4.3h-3.42l3.79-23.7h5.45l3.79,23.7h-3.76ZM20.53,263.36l-1.79-11.99-1.79,11.99h3.59Z"/>
        <path class="cls-1" d="M38.29,253.03v3.08c0,3.79-1.83,5.86-5.55,5.86h-1.76v8.91h-3.73v-23.7h5.49c3.73,0,5.55,2.07,5.55,5.86ZM30.98,258.58h1.76c1.19,0,1.83-.54,1.83-2.24v-3.56c0-1.69-.64-2.24-1.83-2.24h-1.76v8.03Z"/>
        <path class="cls-1" d="M43.92,247.17v23.7h-3.73v-23.7h3.73Z"/>
        <path class="cls-1" d="M57.17,247.17v3.39h-3.89v20.32h-3.73v-20.32h-3.89v-3.39h11.51Z"/>
        <path class="cls-1" d="M66.12,270.87l-.64-4.3h-4.57l-.64,4.3h-3.42l3.79-23.7h5.45l3.79,23.7h-3.76ZM64.97,263.36l-1.79-11.99-1.79,11.99h3.59Z"/>
        <path class="cls-1" d="M75.42,247.17v20.32h6.13v3.39h-9.85v-23.7h3.73Z"/>
        <path class="cls-1" d="M6.22,278.4c3.72,0,5.55,2.07,5.55,5.86v11.99c0,3.79-1.83,5.86-5.55,5.86H.33v-23.7h5.89ZM4.06,298.72h2.1c1.19,0,1.9-.61,1.9-2.3v-12.33c0-1.69-.71-2.3-1.9-2.3h-2.1v16.93Z"/>
        <path class="cls-1" d="M22.79,288.39v3.39h-5.11v6.94h6.43v3.39h-10.16v-23.7h10.16v3.39h-6.43v6.6h5.11Z"/>
        <path class="cls-1" d="M35.4,278.4v20.32h6.13v3.39h-9.85v-23.7h3.73Z"/>
        <path class="cls-1" d="M52.08,302.11l-.64-4.3h-4.57l-.64,4.3h-3.42l3.79-23.7h5.45l3.79,23.7h-3.76ZM50.93,294.59l-1.79-11.99-1.79,11.99h3.59Z"/>
        <path class="cls-1" d="M73.25,278.4h5.18v23.7h-3.52v-17l-2.57,17h-3.52l-2.78-16.76v16.76h-3.25v-23.7h5.18l2.74,16.83,2.54-16.83Z"/>
        <path class="cls-1" d="M86.33,278.13c3.66,0,5.65,2.17,5.65,5.96v12.33c0,3.79-2,5.96-5.65,5.96s-5.66-2.17-5.66-5.96v-12.33c0-3.79,2-5.96,5.66-5.96ZM86.33,298.99c1.19,0,1.93-.64,1.93-2.34v-12.8c0-1.69-.74-2.34-1.93-2.34s-1.93.64-1.93,2.34v12.8c0,1.69.75,2.34,1.93,2.34Z"/>
        <path class="cls-1" d="M97.53,302.11h-3.35v-23.7h4.67l3.83,14.19v-14.19h3.32v23.7h-3.83l-4.64-17.17v17.17Z"/>
        <path class="cls-1" d="M117.08,302.11l-.64-4.3h-4.57l-.64,4.3h-3.42l3.79-23.7h5.45l3.79,23.7h-3.76ZM115.92,294.59l-1.79-11.99-1.79,11.99h3.59Z"/>
        <path class="cls-1" d="M127.63,278.13c3.62,0,5.49,2.17,5.49,5.96v.75h-3.52v-.98c0-1.69-.68-2.34-1.86-2.34s-1.86.64-1.86,2.34c0,4.88,7.28,5.79,7.28,12.56,0,3.79-1.9,5.96-5.55,5.96s-5.55-2.17-5.55-5.96v-1.46h3.52v1.69c0,1.69.75,2.3,1.93,2.3s1.93-.61,1.93-2.3c0-4.88-7.28-5.79-7.28-12.56,0-3.79,1.86-5.96,5.49-5.96Z"/>
        <path class="cls-1" d="M146.04,278.4v3.39h-3.89v20.32h-3.73v-20.32h-3.89v-3.39h11.51Z"/>
        <path class="cls-1" d="M155.25,299.2v-3.72c0-2.2-.75-3.01-2.44-3.01h-1.29v9.65h-3.73v-23.7h5.62c3.86,0,5.52,1.8,5.52,5.45v1.86c0,2.44-.78,4.03-2.44,4.81,1.86.78,2.47,2.57,2.47,5.05v3.66c0,1.15.03,2,.41,2.88h-3.79c-.2-.61-.34-.98-.34-2.91ZM151.53,289.07h1.46c1.39,0,2.23-.61,2.23-2.51v-2.34c0-1.69-.58-2.44-1.9-2.44h-1.79v7.28Z"/>
        <path class="cls-1" d="M170.19,288.39v3.39h-5.11v6.94h6.43v3.39h-10.16v-23.7h10.16v3.39h-6.43v6.6h5.11Z"/>
        <path class="cls-1" d="M177.33,278.4v20.32h6.13v3.39h-9.85v-23.7h3.73Z"/>
        <path class="cls-1" d="M188.95,278.4v20.32h6.13v3.39h-9.85v-23.7h3.73Z"/>
      </g>
      <path class="cls-1" d="M189.21,147.52h-19.25v-20.83c0-4.91-3.89-8.9-8.67-8.9s-8.68,3.99-8.68,8.9v20.83h-19.25v-67.67h15.02v6.22h5.36v-6.22h15.22v6.22h5.36v-6.22h14.89v67.67ZM174.1,143.27h10.97v-59.17h-6.6v6.22h-13.64v-6.22h-6.94v6.22h-13.64v-6.22h-6.74v59.17h10.97v-16.58c0-7.25,5.75-13.16,12.82-13.16s12.82,5.9,12.82,13.16v16.58Z"/>
      <path class="cls-1" d="M185.73,18.89c-1.12-1.3-2.47-2.35-3.96-3.05V5.87h.65V0h-10.8v5.87h.65v9.97c-1.17.56-2.22,1.31-3.16,2.23-.95-.93-2.02-1.69-3.17-2.23V5.87h.65V0h-10.8v5.87h.65v9.97c-1.12.53-2.14,1.26-3.05,2.13-.93-.88-1.96-1.6-3.07-2.13V5.87h.65V0h-10.81v5.87h.65v9.97c-4.43,2.13-7.42,7.17-7.42,12.73v40.33h55.85V28.57c0-3.64-1.24-7.07-3.48-9.68ZM148.99,28.57v36.58h-11.88V28.57c0-4.49,2.53-8.48,6.15-9.69l1.28-.43V3.75h1.99v14.7l1.28.43c1.18.4,2.27,1.12,3.21,2.07-1.29,2.22-2.04,4.85-2.04,7.62ZM169.6,65.15h-16.85V28.57c0-1.3.22-2.57.61-3.74.27-.8.63-1.58,1.08-2.28.36-.59.79-1.13,1.27-1.62.91-.93,1.98-1.64,3.18-2.05l1.28-.43V3.75h2.01v14.7l1.28.43c1.24.42,2.37,1.19,3.33,2.21.08.09.17.17.25.26.37.43.7.9.99,1.38.45.75.82,1.56,1.08,2.43.32,1.08.5,2.23.5,3.41v36.58ZM185.44,65.15h-12.08V28.57c0-2.7-.68-5.28-1.95-7.5.94-1,2.06-1.77,3.32-2.19l1.28-.43V3.75h2.01v14.7l1.28.43c1.34.45,2.57,1.3,3.58,2.47,1.65,1.92,2.56,4.48,2.56,7.22v36.58Z"/>
      <g>
        <path class="cls-1" d="M24.84,68.9C8.28,68.9,0,60.45,0,43.55v-11.15h17.44v11.34c0,3.26.6,5.65,1.8,7.18,1.2,1.53,3.06,2.29,5.59,2.29s4.47-.76,5.64-2.27c1.17-1.51,1.75-3.91,1.75-7.2V0h17.44v43.55c0,16.9-8.28,25.35-24.84,25.35Z"/>
        <path class="cls-1" d="M109.85,62c-4.69,4.6-11.57,6.91-20.64,6.91s-15.96-2.3-20.64-6.91c-4.69-4.6-7.03-11.26-7.03-19.98V0h18.15v42.42c0,3.35.85,5.91,2.54,7.67,1.69,1.76,4.02,2.64,6.98,2.64s5.28-.88,6.95-2.64c1.68-1.76,2.52-4.32,2.52-7.67V0h18.2v42.02c0,8.71-2.34,15.37-7.03,19.98Z"/>
        <path class="cls-1" d="M18.2,102.04v45.48H0v-67.67h33.49l9.91,45.43,9.91-45.43h33.49v67.67h-18.2v-45.48h-5.53l-10.11,45.48h-19.19l-10.06-45.48h-5.53Z"/>
        <path class="cls-1" d="M116.88,79.85v67.67h-18.2v-67.67h18.2Z"/>
        <path class="cls-1" d="M94.39,210.6v15.54h-25.77v-67.67h18.2v52.13h7.57Z"/>
        <polygon class="cls-1" points="116.88 158.46 98.68 158.46 98.68 226.14 123.44 226.14 127.57 210.6 116.88 210.6 116.88 158.46"/>
        <path class="cls-1" d="M176.57,158.46l18,67.67h-18.99l-3.6-15.54h-21.27l-3.74,15.54h-18.99l18-67.67h30.58ZM153.54,198.37h15.59l-5.65-24.37h-4.05l-5.89,24.37Z"/>
      </g>
      <path class="cls-1" d="M64.29,190.42c-.62-.97-1.64-2.28-3.03-3.15.15-.85-.32-1.24-.54-1.37h0c-.75-.45-1.59-.73-2.41-.8.01-.36-.05-.71-.17-1.07-.14-.39-.45-.66-.88-.77-1.26-.31-2.59-.11-3.77.54.18-.75.19-1.45.01-2.09-.1-.39-.36-.67-.7-.8-.83-.32-1.68-.48-2.54-.48-2.1,0-4.13.88-5.48,2.37-.34-.22-.7-.38-1.08-.47-.54-.13-1.05.1-1.27.56-.54,1.03-.88,2.08-1,3.1-.05.4-.03.77,0,1.14-.5-.21-1.01-.45-1.43-.79-1.27-1.01-1.09-2.99-.87-4.08.26-1.3.83-2.15,1.72-3.2.29-.34.6-.69.9-1.04,2.2-2.5,4.7-5.34,4.18-9.12-.56-4.06-4.64-5.77-8.2-5.31-2.17.28-4.48,1.07-7,2.35.04-.84-.02-1.68-.24-2.52-.1-.51-.52-.86-1.04-.87-.41-.01-.82.05-1.22.19-.91-1.7-2.59-3.03-4.53-3.57-.9-.25-1.82-.32-2.76-.2-.39.05-.7.26-.9.61-.33.58-.49,1.25-.5,1.97,0,.04,0,.09,0,.13-.37-.34-.78-.63-1.22-.86-.71-.37-1.46-.56-2.24-.57-.49,0-.89.23-1.13.67-.16.29-.27.59-.34.92-.81-.13-1.68-.07-2.5.18-.53.14-.85.58-.9,1.21-1.22.4-2.43,1.16-3.69,2.31-.33.3-.44.8-.27,1.21.34.79.87,1.53,1.52,2.1-.04.07-.08.15-.1.23-.22.56-.07,1.16.37,1.56-.21.07-.42.16-.61.25-.56.28-.84.83-.74,1.43.03.19.09.38.18.57-1.08.74-1.16,1.69-1.11,2.22.04.39.15.78.32,1.2.18.41.12.81-.13,1.17-.51.72-.82,1.45-.95,2.23-.03.21-.02.41.06.59,0,.03.02.05.03.07.1.21.27.39.49.51.73.4,1.53.65,2.43.75.4.04.73.28.93.66.09.16.18.29.28.43-.57.02-1.14.09-1.71.23-4.68,1.1-7.59,5.81-6.49,10.49.44,1.87,1.46,3.45,2.81,4.62-.5.23-.98.52-1.43.85-1.79,1.31-2.96,3.25-3.3,5.44-.34,2.2.2,4.4,1.52,6.19.53.73,1.17,1.35,1.89,1.86-1.62,1.31-2.68,3.14-3,5.21-.34,2.2.2,4.4,1.52,6.19,1.31,1.79,3.25,2.96,5.44,3.3,1.07.16,2.13.12,3.17-.12,1.09-.26,2.1-.72,3.01-1.39,1.8-1.32,2.97-3.25,3.31-5.45.02-.11.03-.22.04-.33.87.49,1.83.83,2.85.99,1.07.16,2.13.12,3.17-.12,1.09-.26,2.1-.72,3.01-1.39,1.84-1.35,2.97-3.33,3.3-5.43,1.88,1.26,4.24,1.72,6.53,1.18,1.09-.26,2.1-.72,3.01-1.39,2.28-1.68,3.45-4.31,3.38-6.94.18.3.37.59.61.84.35.42.89.52,1.47.3.88.93,2.08,1.71,3.65,2.36.42.17.91.06,1.21-.27.58-.64,1.02-1.44,1.26-2.27.08,0,.17,0,.25,0,.6-.04,1.08-.43,1.25-.99.16.16.32.31.48.45.49.39,1.11.41,1.61.06.16-.11.31-.25.44-.4,1.13.66,2.03.34,2.48.06.34-.2.65-.46.95-.8.29-.33.68-.45,1.12-.37.87.15,1.66.13,2.42-.08.2-.06.38-.16.51-.3.02-.02.04-.04.05-.06.15-.18.24-.41.25-.66.05-.83-.06-1.66-.35-2.52-.13-.38-.05-.77.2-1.12.33-.44.54-.87.66-1.31.14-.55.14-1.35-.61-2.18.2-.25.34-.51.39-.77.08-.36.01-.71-.19-.99-.18-.25-.45-.48-.81-.71.13-.07.24-.15.33-.24.34-.32.48-.75.4-1.22-.01-.06-.02-.13-.04-.19.78-.41,1.45-.97,1.98-1.66.26-.34.28-.84.04-1.22ZM10.29,178.92c-.28-.03-.54-.09-.78-.17.08-.19.19-.38.32-.56.36-.52.56-1.07.58-1.65.02-.54-.13-.94-.24-1.28-.08-.22-.14-.39-.14-.57,0-.02,0-.04.07-.1.2-.17.45-.29.77-.39.32-.09.58-.36.66-.69.04-.19.03-.38-.04-.55,0-.02-.02-.04-.03-.07-.05-.11-.13-.21-.22-.3.93-.19,1.85-.07,2.8.09l.91.12c.56.07,1.56-.07,2.01-.76.27-.42.24-.93-.06-1.32-.17-.21-.39-.38-.64-.48-.25-.1-.59-.22-.98-.24l-2.42-.1c-.22,0-.47-.05-.7-.1.12-.14.18-.31.21-.43.06-.33-.08-.79-.47-.98-.5-.25-.92-.62-1.25-1.1l.12-.1c.75-.62,1.74-1.11,2.54-1.25.28-.05.5-.18.64-.39.15-.22.17-.46.15-.66.58-.07,1.12.03,1.58.29.35.2.82.13,1.12-.15.11-.11.36-.42.25-.94-.04-.19-.05-.36-.04-.53.37.09.73.26,1.08.51.44.33.82.8,1.1,1.39.28.6.62,1.25,1.17,1.56.55.3,1.21.12,1.52-.43.3-.52.17-1.17.03-1.69l-.04-.13c-.11-.38-.21-.73-.29-1.1-.09-.41-.13-.96-.03-1.37,1-.02,2,.3,2.85.92.8.58,1.36,1.33,1.63,2.17.09.29.32.53.6.63.28.1.61.05.88-.12.09-.06.18-.11.26-.16.12.97,0,1.84-.34,2.44-.19.34-.49.58-.81.67-.27.07-.58.08-.92.08-.37,0-.76.02-1.17.11-.81.18-1.45.62-1.82,1.23-.22.37-.33.8-.32,1.24l-.6.29-2.86-1.71c-.44-.27-.95-.07-1.19.28-.14.2-.19.46-.14.69.01.07.04.13.06.19.07.15.19.28.34.37l1.84,1.1-5.32,2.54c-.49.23-.61.79-.45,1.2.1.24.29.43.53.52.24.09.49.08.72-.03l5.32-2.53-.31,2.12c-.03.17,0,.34.07.5.03.06.06.12.1.17.15.19.38.31.63.34.39.03.83-.2.95-.65l.51-3.4.6-.28c.31.27.68.46,1.08.53.68.12,1.41-.06,2.05-.52.4-.29.68-.61.95-.92.19-.22.37-.42.58-.6.65-.56,1.53-.2,1.99.06.43.24.84.56,1.22.95-.09.04-.18.08-.29.11-.29.1-.52.3-.63.57-.11.28-.07.62.1.9.36.58.57,1.16.63,1.76.14,1.4-.22,2.66-1.06,3.66-.37-.19-.81-.56-1.08-.93l-.7-.97-.46-.57c-.19-.23-.45-.4-.76-.48-.31-.08-.65-.03-.92.14-.27.17-.45.46-.5.78-.05.34-.01.69.12.99l.34.81c.17.39.32.77.39,1.16.12.67.02,1.33-.26,1.88-.12-.08-.24-.2-.36-.36-.24-.3-.61-.44-.95-.36-.38.08-.68.39-.75.76-.1.53-.35.99-.77,1.41-.14-.14-.33-.28-.6-.3-.25-.02-.5.07-.72.26-.75.67-1.85,1.02-2.71,1.2-.17-.54-.19-1.05-.08-1.58.08-.36-.03-.7-.29-.94-.17-.15-.4-.23-.63-.23.12-.24.25-.48.41-.7l1-1.32c.38-.49.85-1.11.88-1.92v-.02c0-.13-.02-.53-.37-.89-.03-.03-.07-.06-.11-.09-.55-.36-1.24-.26-1.84.26-.4.35-.66.75-.89,1.13l-.81,1.34c-.31.45-.65.83-1.04,1.14-.03-.32-.19-.6-.45-.76-.31-.19-.73-.18-1.04.04-.27.19-.53.3-.8.36-.07.01-.09,0-.12-.03-.12-.11-.22-.24-.3-.39-.18-.32-.43-.72-.84-1.03-.44-.34-.96-.55-1.56-.61ZM15.58,184.33s-.02-.01-.03-.02c0,0,.01,0,.02-.01,0,.01,0,.02,0,.03ZM13.31,219.54c-.19,1.22-.84,2.3-1.84,3.03-.51.37-1.08.64-1.68.78-.57.13-1.17.16-1.76.07-1.22-.19-2.3-.84-3.03-1.84-.73-1-1.03-2.22-.84-3.44.19-1.22.84-2.3,1.84-3.03.51-.37,1.08-.64,1.68-.78.57-.13,1.17-.16,1.76-.07,1.22.19,2.3.84,3.03,1.84.73,1,1.03,2.22.84,3.44ZM12.9,206.29c-.19,1.22-.84,2.3-1.84,3.03-.51.37-1.08.64-1.68.78-.57.13-1.17.16-1.76.07-1.22-.19-2.3-.84-3.03-1.84-.73-1-1.03-2.22-.84-3.44s.84-2.3,1.84-3.03c.51-.37,1.08-.64,1.68-.78.57-.13,1.17-.16,1.77-.07,1.22.19,2.3.84,3.03,1.84.73,1,1.03,2.22.84,3.44ZM11.67,196.31c-2.7.64-5.42-1.04-6.05-3.74-.64-2.7,1.04-5.41,3.75-6.05,2.7-.64,5.42,1.04,6.05,3.74.64,2.7-1.04,5.42-3.74,6.05ZM23.84,216.27c-.51.37-1.08.63-1.68.78-.57.13-1.17.16-1.76.07-1.22-.19-2.3-.84-3.03-1.84-1.51-2.06-1.07-4.96.99-6.47.52-.38,1.09-.63,1.67-.77,1.75-.41,3.67.22,4.8,1.77,1.51,2.06,1.07,4.96-.99,6.47ZM25.22,202.75c-.52.38-1.09.63-1.67.77-1.76.41-3.67-.22-4.8-1.77-1.51-2.06-1.07-4.96.99-6.47.52-.38,1.09-.63,1.67-.77,1.75-.41,3.67.22,4.8,1.77,1.51,2.06,1.07,4.96-.99,6.47ZM20.57,190.93c-.46.11-.9.26-1.33.44,0-.64-.08-1.3-.23-1.95-.06-.27-.14-.52-.23-.78,1.12-.17,2.6-.54,3.89-1.37.7.5,1.25.24,1.47.09h0c.72-.49,1.33-1.13,1.74-1.84.32.16.67.26,1.04.3.41.04.79-.13,1.07-.47.81-1.01,1.2-2.3,1.11-3.65.6.48,1.23.78,1.89.9.39.07.76-.04,1.03-.3.64-.62,1.15-1.32,1.51-2.09.89-1.9.95-4.11.17-5.97.35-.21.64-.47.89-.77.35-.43.36-1,.03-1.39-.71-.93-1.51-1.67-2.39-2.22-.32-.2-.65-.35-.97-.48.59-.32,1.22-.65,1.89-.95,2.13-.95,4.77-2.12,7.07-1.54,1.01.26,1.76.8,2.16,1.58.46.9.46,2.06,0,3.25-.6,1.53-1.71,2.74-2.89,4.02-.47.51-.93,1.02-1.36,1.55-1.87,2.29-3.43,6.2-1.66,9.69.43.84,1.04,1.52,1.89,2.1-.71.32-1.39.7-2.01,1.21-.42.31-.56.83-.35,1.31.16.38.4.72.69,1.03-1.16,1.55-1.65,3.63-1.31,5.62.03.17.1.34.14.51-1.13-.22-2.31-.21-3.48.07-.42.1-.84.23-1.23.4.04-1.77-.48-3.57-1.61-5.11-1.98-2.7-5.36-3.94-8.62-3.17ZM36.68,210.65c-.52.38-1.09.63-1.67.77-1.76.41-3.67-.22-4.8-1.77-.73-1-1.03-2.22-.84-3.44.19-1.22.84-2.3,1.84-3.03.52-.38,1.09-.63,1.67-.77,1.75-.41,3.67.22,4.8,1.77,1.51,2.06,1.07,4.96-.99,6.47ZM59.36,192.1c-.36.08-.62.32-.73.65-.07.22-.04.46.05.67-.27,0-.54-.02-.8-.08l-1.61-.35c-.6-.13-1.36-.3-2.1.01h-.02c-.12.07-.47.25-.64.72-.02.04-.03.09-.03.14-.09.64.28,1.22,1.01,1.55.48.21.95.28,1.4.32l1.55.16c.53.09,1.02.23,1.47.45-.28.16-.46.42-.49.72-.04.36.15.73.48.92.28.16.5.35.66.57.04.05.04.08.02.12-.05.15-.12.3-.22.44-.21.29-.47.69-.58,1.19-.12.54-.09,1.1.1,1.66.09.26.15.52.18.77-.21,0-.42-.01-.64-.05-.62-.11-1.2-.05-1.73.17-.49.21-.8.51-1.05.76-.17.16-.3.29-.45.36-.01,0-.04.02-.12-.02-.23-.11-.46-.28-.68-.53-.22-.25-.57-.37-.9-.3-.19.04-.35.13-.48.27-.02.02-.03.04-.05.05-.08.09-.14.2-.18.32-.56-.75-.84-1.64-1.09-2.56l-.28-.86c-.17-.54-.72-1.38-1.53-1.49-.49-.06-.94.17-1.16.61-.12.24-.18.51-.17.78.01.27.05.62.19.98l.93,2.22c.08.2.16.44.2.68-.18-.05-.36-.04-.48,0-.33.08-.68.4-.69.84-.01.55-.17,1.09-.47,1.59l-.14-.07c-.88-.41-1.74-1.1-2.2-1.76-.16-.23-.37-.37-.62-.41-.27-.04-.48.04-.65.14-.31-.5-.44-1.02-.41-1.55.03-.4-.23-.8-.61-.94-.14-.06-.53-.15-.95.17-.13.1-.26.16-.39.22-.03-.05-.06-.1-.09-.15-.04-.32-.04-.65.03-1,.11-.54.37-1.07.78-1.58.42-.5.87-1.08.91-1.71.04-.63-.4-1.14-1.02-1.19-.6-.05-1.13.34-1.53.68l-.1.09c-.3.25-.57.5-.87.73-.33.25-.81.52-1.22.61-.44-.89-.57-1.93-.38-2.95.19-.96.62-1.79,1.27-2.38.22-.2.34-.51.31-.81-.03-.29-.21-.57-.48-.74-.09-.06-.18-.12-.25-.17.82-.51,1.66-.78,2.34-.73.39.03.73.19.94.45.18.21.31.49.46.79.17.33.34.68.59,1.01.5.65,1.17,1.05,1.88,1.12.43.04.86-.04,1.25-.24l.51.42-.34,3.3c-.05.51.34.89.75.95.24.04.49-.02.68-.17.05-.04.1-.09.14-.14.11-.13.17-.29.19-.46l.22-2.12,4.53,3.73c.41.34.97.22,1.27-.1.17-.19.26-.44.24-.69-.02-.25-.13-.48-.33-.64l-4.53-3.73,2.04-.62c.17-.05.31-.14.42-.28.04-.05.08-.11.11-.17.11-.22.12-.48.04-.7-.14-.36-.53-.66-.99-.58l-3.28.98-.51-.42c.12-.39.13-.8.02-1.2-.18-.67-.65-1.25-1.33-1.63-.43-.24-.84-.36-1.23-.47-.28-.08-.54-.15-.79-.27-.78-.35-.83-1.29-.79-1.82.04-.49.15-.99.34-1.5.07.06.14.13.22.21.21.22.49.34.78.33.3-.02.59-.2.76-.47.37-.57.8-1,1.32-1.31,1.2-.72,2.49-.92,3.74-.59-.01.41-.16.96-.38,1.36l-.57,1.04-.31.65c-.13.27-.17.57-.11.89.06.32.24.6.51.77.27.17.6.21.91.12.33-.09.63-.28.84-.52l.59-.65c.28-.32.55-.61.88-.84.55-.39,1.19-.58,1.81-.56-.03.14-.08.3-.17.48-.17.34-.14.73.07,1,.24.31.64.45,1,.35.52-.14,1.04-.1,1.59.1-.07.18-.11.41-.02.66.09.24.27.43.54.54.92.4,1.7,1.24,2.23,1.94-.42.38-.87.61-1.39.74Z"/>
    </g>
  </g>
</svg>