<?xml version="1.0" encoding="UTF-8"?>
<svg id="Capa_2" data-name="Capa 2" xmlns="http://www.w3.org/2000/svg" viewBox="0 0 260.06 403.1">
  <defs>
    <style>
      .cls-1 {
        fill: #85004d;
      }

      .cls-2 {
        fill: #060703;
      }
    </style>
  </defs>
  <g id="Capa_1-2" data-name="Capa 1">
    <g>
      <g>
        <path class="cls-2" d="M14.84,353.52c0,5.05-2.53,7.94-7.4,7.94S.03,358.57.03,353.52v-16.43c0-5.06,2.53-7.95,7.4-7.95s7.4,2.89,7.4,7.95v3.07h-4.69v-3.38c0-2.26-.99-3.12-2.57-3.12s-2.57.86-2.57,3.12v17.06c0,2.26.99,3.07,2.57,3.07s2.57-.81,2.57-3.07v-4.52h4.69v4.2Z"/>
        <path class="cls-2" d="M28.9,361.1l-.86-5.73h-6.09l-.86,5.73h-4.56l5.06-31.6h7.27l5.06,31.6h-5.01ZM27.37,351.08l-2.39-15.98-2.39,15.98h4.78Z"/>
        <path class="cls-2" d="M51.05,337.31v4.11c0,5.06-2.44,7.81-7.4,7.81h-2.35v11.87h-4.97v-31.6h7.31c4.97,0,7.4,2.75,7.4,7.81ZM41.3,344.72h2.35c1.58,0,2.44-.72,2.44-2.98v-4.74c0-2.26-.86-2.98-2.44-2.98h-2.35v10.7Z"/>
        <path class="cls-2" d="M58.55,329.5v31.6h-4.97v-31.6h4.97Z"/>
        <path class="cls-2" d="M76.22,329.5v4.51h-5.19v27.09h-4.97v-27.09h-5.19v-4.51h15.35Z"/>
        <path class="cls-2" d="M88.14,361.1l-.86-5.73h-6.09l-.86,5.73h-4.56l5.06-31.6h7.27l5.06,31.6h-5.01ZM86.61,351.08l-2.39-15.98-2.39,15.98h4.78Z"/>
        <path class="cls-2" d="M100.54,329.5v27.09h8.17v4.51h-13.14v-31.6h4.97Z"/>
        <path class="cls-2" d="M8.29,371.14c4.96,0,7.4,2.75,7.4,7.81v15.98c0,5.06-2.44,7.81-7.4,7.81H.44v-31.6h7.85ZM5.41,398.23h2.8c1.58,0,2.53-.81,2.53-3.07v-16.43c0-2.26-.95-3.07-2.53-3.07h-2.8v22.57Z"/>
        <path class="cls-2" d="M30.39,384.46v4.52h-6.82v9.25h8.58v4.51h-13.54v-31.6h13.54v4.51h-8.58v8.8h6.82Z"/>
        <path class="cls-2" d="M47.19,371.14v27.09h8.17v4.51h-13.14v-31.6h4.97Z"/>
        <path class="cls-2" d="M69.43,402.74l-.86-5.73h-6.09l-.86,5.73h-4.56l5.06-31.6h7.27l5.06,31.6h-5.01ZM67.9,392.72l-2.39-15.98-2.39,15.98h4.78Z"/>
        <path class="cls-2" d="M97.66,371.14h6.91v31.6h-4.69v-22.66l-3.43,22.66h-4.69l-3.7-22.35v22.35h-4.33v-31.6h6.91l3.66,22.44,3.39-22.44Z"/>
        <path class="cls-2" d="M115.08,370.78c4.87,0,7.54,2.89,7.54,7.95v16.43c0,5.05-2.66,7.94-7.54,7.94s-7.54-2.89-7.54-7.94v-16.43c0-5.06,2.66-7.95,7.54-7.95ZM115.08,398.59c1.58,0,2.57-.86,2.57-3.11v-17.06c0-2.26-.99-3.12-2.57-3.12s-2.57.86-2.57,3.12v17.06c0,2.26.99,3.11,2.57,3.11Z"/>
        <path class="cls-2" d="M130.02,402.74h-4.47v-31.6h6.23l5.1,18.91v-18.91h4.42v31.6h-5.1l-6.18-22.89v22.89Z"/>
        <path class="cls-2" d="M156.07,402.74l-.86-5.73h-6.09l-.86,5.73h-4.56l5.06-31.6h7.27l5.06,31.6h-5.01ZM154.54,392.72l-2.39-15.98-2.39,15.98h4.78Z"/>
        <path class="cls-2" d="M170.14,370.78c4.83,0,7.31,2.89,7.31,7.95v.99h-4.69v-1.31c0-2.26-.9-3.12-2.48-3.12s-2.48.86-2.48,3.12c0,6.5,9.71,7.72,9.71,16.75,0,5.05-2.53,7.94-7.4,7.94s-7.4-2.89-7.4-7.94v-1.94h4.69v2.26c0,2.26.99,3.07,2.57,3.07s2.57-.81,2.57-3.07c0-6.5-9.71-7.72-9.71-16.75,0-5.06,2.48-7.95,7.31-7.95Z"/>
        <path class="cls-2" d="M194.68,371.14v4.51h-5.19v27.09h-4.97v-27.09h-5.19v-4.51h15.35Z"/>
        <path class="cls-2" d="M206.97,398.86v-4.96c0-2.94-.99-4.02-3.25-4.02h-1.71v12.87h-4.97v-31.6h7.49c5.15,0,7.36,2.39,7.36,7.27v2.48c0,3.25-1.04,5.37-3.25,6.41,2.48,1.04,3.29,3.43,3.29,6.73v4.87c0,1.54.05,2.66.54,3.84h-5.06c-.27-.81-.45-1.31-.45-3.88ZM202,385.36h1.94c1.85,0,2.98-.81,2.98-3.34v-3.12c0-2.26-.77-3.25-2.53-3.25h-2.39v9.71Z"/>
        <path class="cls-2" d="M226.88,384.46v4.52h-6.82v9.25h8.58v4.51h-13.54v-31.6h13.54v4.51h-8.58v8.8h6.82Z"/>
        <path class="cls-2" d="M236.4,371.14v27.09h8.17v4.51h-13.14v-31.6h4.97Z"/>
        <path class="cls-2" d="M251.89,371.14v27.09h8.17v4.51h-13.14v-31.6h4.97Z"/>
      </g>
      <path class="cls-1" d="M252.23,196.66h-25.66v-27.77c0-6.55-5.19-11.87-11.56-11.87s-11.57,5.33-11.57,11.87v27.77h-25.66v-90.21h20.03v8.29h7.14v-8.29h20.3v8.29h7.14v-8.29h19.85v90.21ZM232.09,190.99h14.62v-78.88h-8.8v8.29h-18.18v-8.29h-9.25v8.29h-18.18v-8.29h-8.99v78.88h14.62v-22.1c0-9.67,7.66-17.54,17.09-17.54s17.09,7.87,17.09,17.54v22.1Z"/>
      <path class="cls-1" d="M247.59,25.18c-1.5-1.74-3.29-3.13-5.27-4.06V7.83h.86V0h-14.4v7.83h.86v13.29c-1.56.74-2.96,1.75-4.22,2.98-1.27-1.24-2.69-2.25-4.23-2.98V7.83h.86V0h-14.4v7.83h.86v13.29c-1.5.71-2.86,1.68-4.06,2.84-1.24-1.18-2.61-2.13-4.09-2.84V7.83h.86V0h-14.41v7.83h.86v13.29c-5.91,2.84-9.9,9.56-9.9,16.97v53.77h74.45v-53.77c0-4.85-1.65-9.43-4.64-12.9ZM198.61,38.09v48.77h-15.83v-48.77c0-5.98,3.37-11.3,8.2-12.92l1.71-.57V5h2.66v19.6l1.71.57c1.57.53,3.02,1.5,4.28,2.76-1.72,2.96-2.72,6.47-2.72,10.15ZM226.1,86.86h-22.47v-48.77c0-1.74.29-3.43.82-4.99.36-1.07.85-2.1,1.43-3.04.48-.79,1.06-1.51,1.69-2.16,1.21-1.24,2.64-2.19,4.25-2.73l1.71-.57V5h2.67v19.6l1.71.57c1.65.56,3.16,1.59,4.44,2.95.11.12.23.23.33.35.5.57.94,1.19,1.31,1.84.6,1,1.09,2.08,1.44,3.23.42,1.44.66,2.98.66,4.55v48.77ZM247.22,86.86h-16.11v-48.77c0-3.6-.91-7.04-2.6-10,1.25-1.33,2.75-2.36,4.43-2.92l1.71-.57V5h2.67v19.6l1.71.57c1.78.6,3.43,1.74,4.77,3.29,2.21,2.55,3.41,5.97,3.41,9.62v48.77Z"/>
      <g>
        <path class="cls-1" d="M33.11,91.86C11.04,91.86,0,80.59,0,58.06v-14.86h23.25v15.12c0,4.34.8,7.53,2.4,9.57,1.6,2.04,4.09,3.06,7.46,3.06s5.96-1.01,7.52-3.02c1.56-2.02,2.34-5.22,2.34-9.6V0h23.25v58.06c0,22.53-11.04,33.8-33.11,33.8Z"/>
        <path class="cls-1" d="M146.44,82.65c-6.25,6.14-15.42,9.21-27.52,9.21s-21.27-3.07-27.52-9.21c-6.25-6.14-9.37-15.01-9.37-26.63V0h24.2v56.55c0,4.47,1.13,7.88,3.39,10.22,2.26,2.35,5.36,3.52,9.3,3.52s7.04-1.17,9.27-3.52c2.24-2.34,3.35-5.75,3.35-10.22V0h24.26v56.02c0,11.62-3.12,20.49-9.37,26.63Z"/>
      </g>
      <g>
        <path class="cls-1" d="M24.26,136.04v60.62H0v-90.21h44.65l13.22,60.56,13.22-60.56h44.65v90.21h-24.26v-60.62h-7.37l-13.48,60.62h-25.58l-13.41-60.62h-7.37Z"/>
        <path class="cls-1" d="M155.81,106.45v90.21h-24.26v-90.21h24.26Z"/>
      </g>
      <g>
        <path class="cls-1" d="M125.84,280.75v20.71h-34.35v-90.21h24.26v69.5h10.09Z"/>
        <polygon class="cls-1" points="155.81 211.25 131.55 211.25 131.55 301.46 164.56 301.46 170.07 280.75 155.81 280.75 155.81 211.25"/>
        <path class="cls-1" d="M235.39,211.25l24,90.21h-25.32l-4.79-20.71h-28.35l-4.99,20.71h-25.31l24-90.21h40.77ZM204.68,264.44h20.78l-7.53-32.48h-5.4l-7.85,32.48Z"/>
      </g>
      <path class="cls-1" d="M85.71,253.85c-.83-1.29-2.19-3.03-4.04-4.2.2-1.13-.42-1.65-.72-1.83h0c-1-.6-2.12-.97-3.21-1.06.01-.48-.06-.95-.23-1.43-.18-.52-.6-.88-1.17-1.02-1.68-.41-3.46-.15-5.03.72.25-.99.25-1.93.02-2.79-.14-.51-.47-.89-.94-1.07-1.11-.43-2.25-.64-3.38-.65-2.8,0-5.5,1.18-7.3,3.16-.45-.3-.93-.51-1.44-.63-.72-.18-1.41.13-1.69.75-.72,1.38-1.17,2.77-1.33,4.13-.06.53-.04,1.03,0,1.52-.67-.29-1.35-.6-1.91-1.05-1.69-1.34-1.45-3.98-1.16-5.44.35-1.73,1.1-2.87,2.29-4.26.39-.46.8-.92,1.21-1.38,2.94-3.34,6.27-7.12,5.57-12.16-.75-5.42-6.19-7.69-10.93-7.09-2.9.37-5.98,1.43-9.33,3.13.05-1.12-.03-2.25-.32-3.36-.14-.68-.69-1.14-1.38-1.16-.55-.02-1.09.07-1.63.26-1.22-2.27-3.45-4.03-6.04-4.76-1.19-.33-2.43-.42-3.68-.27-.51.06-.94.35-1.19.81-.44.78-.66,1.66-.66,2.63,0,.06,0,.12,0,.18-.5-.46-1.04-.84-1.63-1.14-.95-.49-1.95-.74-2.99-.76-.65-.01-1.19.31-1.51.89-.21.38-.36.79-.45,1.23-1.07-.18-2.24-.09-3.33.24-.7.19-1.13.78-1.2,1.61-1.62.53-3.23,1.54-4.92,3.08-.44.4-.59,1.07-.36,1.62.45,1.06,1.16,2.04,2.03,2.8-.05.1-.1.2-.14.3-.29.75-.09,1.55.49,2.07-.28.1-.56.21-.81.33-.74.38-1.12,1.11-.98,1.91.05.26.12.51.23.75-1.44.99-1.55,2.26-1.48,2.96.06.52.19,1.04.42,1.6.24.54.17,1.07-.18,1.56-.68.96-1.09,1.93-1.27,2.97-.05.27-.02.54.07.79.01.03.03.07.04.1.13.28.36.52.65.68.98.53,2.04.86,3.24,1,.53.06.97.37,1.24.88.11.21.24.39.37.57-.75.03-1.51.12-2.28.3-6.24,1.47-10.12,7.74-8.65,13.98.59,2.49,1.94,4.6,3.75,6.15-.67.31-1.31.69-1.91,1.13-2.39,1.75-3.95,4.33-4.4,7.26-.45,2.93.27,5.86,2.02,8.25.71.97,1.56,1.8,2.51,2.48-2.16,1.74-3.57,4.19-4,6.94-.45,2.93.27,5.86,2.02,8.25,1.75,2.39,4.33,3.95,7.26,4.4,1.42.22,2.84.16,4.23-.16,1.45-.34,2.8-.97,4.01-1.85,2.39-1.76,3.96-4.33,4.41-7.26.02-.14.04-.29.06-.44,1.16.66,2.44,1.11,3.8,1.32,1.42.22,2.84.16,4.23-.16,1.45-.34,2.8-.97,4.01-1.85,2.46-1.8,3.96-4.44,4.39-7.23,2.51,1.68,5.65,2.3,8.71,1.58,1.45-.34,2.8-.97,4.01-1.85,3.04-2.23,4.6-5.74,4.51-9.26.24.39.5.78.81,1.13.47.56,1.19.7,1.96.4,1.17,1.24,2.77,2.28,4.87,3.15.55.23,1.22.08,1.62-.36.77-.86,1.36-1.92,1.68-3.02.11,0,.22,0,.33,0,.8-.06,1.45-.57,1.67-1.32.21.22.42.42.64.59.66.51,1.48.55,2.15.08.21-.15.41-.33.58-.53,1.51.89,2.7.45,3.3.09.45-.27.86-.62,1.27-1.06.39-.44.9-.6,1.49-.5,1.16.21,2.21.17,3.22-.11.27-.07.5-.21.69-.4.02-.03.05-.05.07-.08.2-.24.31-.54.34-.88.07-1.11-.08-2.21-.47-3.36-.17-.5-.07-1.03.27-1.49.44-.58.72-1.16.88-1.75.19-.73.19-1.8-.81-2.91.27-.33.45-.69.53-1.03.11-.48.02-.95-.25-1.32-.24-.33-.6-.65-1.07-.94.17-.09.31-.2.44-.32.45-.43.64-1,.54-1.63-.01-.09-.03-.17-.06-.26,1.04-.55,1.93-1.3,2.64-2.22.35-.46.37-1.12.05-1.62ZM13.72,238.52c-.37-.04-.72-.11-1.04-.22.11-.26.25-.51.42-.75.48-.69.74-1.43.77-2.2.03-.72-.17-1.26-.32-1.7-.1-.29-.19-.52-.18-.76,0-.02,0-.06.09-.13.27-.22.6-.39,1.03-.52.43-.13.78-.48.88-.92.06-.25.04-.5-.05-.74-.01-.03-.02-.06-.04-.09-.07-.15-.17-.28-.29-.4,1.23-.26,2.46-.09,3.73.13l1.21.15c.75.1,2.08-.09,2.68-1.02.36-.56.32-1.24-.08-1.75-.22-.28-.52-.51-.85-.64-.33-.14-.78-.3-1.3-.32l-3.23-.14c-.29-.01-.63-.06-.94-.14.16-.19.25-.41.28-.58.09-.44-.1-1.05-.62-1.31-.66-.33-1.23-.83-1.66-1.47l.16-.14c1-.83,2.32-1.49,3.38-1.67.37-.06.66-.24.85-.52.2-.3.22-.61.2-.87.78-.09,1.49.04,2.11.39.47.26,1.09.17,1.49-.2.15-.14.48-.55.34-1.25-.05-.25-.07-.49-.05-.7.49.11.98.34,1.44.69.59.44,1.09,1.06,1.47,1.85.37.79.82,1.67,1.56,2.07.74.4,1.61.16,2.03-.57.4-.7.23-1.57.04-2.25l-.05-.17c-.14-.5-.28-.98-.39-1.47-.12-.54-.17-1.28-.05-1.83,1.33-.03,2.67.4,3.8,1.22,1.06.77,1.81,1.77,2.17,2.89.12.39.43.71.8.84.37.13.81.07,1.17-.16.12-.08.24-.15.35-.21.15,1.29,0,2.46-.45,3.25-.25.45-.65.78-1.08.89-.36.09-.78.1-1.22.11-.5.01-1.01.02-1.56.15-1.07.24-1.94.82-2.43,1.64-.3.5-.44,1.06-.42,1.65l-.8.38-3.81-2.28c-.59-.35-1.27-.09-1.58.37-.19.27-.25.61-.18.93.02.09.05.17.09.25.1.2.25.38.45.49l2.46,1.47-7.1,3.38c-.65.31-.82,1.06-.59,1.6.13.32.39.57.7.69.31.12.66.11.96-.04l7.1-3.38-.41,2.83c-.03.23,0,.46.1.66.04.08.08.16.14.22.2.26.51.42.83.45.52.04,1.11-.27,1.26-.87l.67-4.53.8-.38c.41.36.9.61,1.44.71.91.17,1.88-.08,2.74-.69.53-.38.91-.81,1.27-1.23.25-.29.49-.57.77-.8.87-.74,2.04-.27,2.66.07.58.32,1.12.75,1.63,1.27-.12.05-.24.1-.38.15-.39.13-.69.4-.84.76-.15.37-.1.83.13,1.19.48.77.76,1.54.84,2.35.19,1.87-.3,3.55-1.41,4.88-.5-.25-1.08-.74-1.43-1.23l-.93-1.29-.62-.75c-.25-.31-.6-.53-1.02-.64-.42-.11-.86-.04-1.22.19-.35.23-.6.61-.66,1.04-.07.45-.01.92.16,1.32l.46,1.09c.22.53.43,1.02.52,1.55.15.89.03,1.77-.35,2.51-.16-.11-.32-.27-.48-.48-.32-.39-.81-.58-1.26-.48-.51.11-.91.52-.99,1.02-.13.71-.47,1.32-1.03,1.87-.18-.19-.44-.37-.8-.4-.34-.03-.67.09-.97.35-1.01.89-2.46,1.36-3.61,1.6-.22-.72-.25-1.4-.1-2.11.11-.48-.03-.94-.38-1.25-.23-.2-.53-.31-.84-.31.16-.32.33-.64.55-.93l1.34-1.76c.5-.66,1.13-1.48,1.18-2.55v-.03c0-.18-.03-.71-.5-1.18-.04-.04-.09-.08-.15-.12-.73-.48-1.65-.35-2.45.35-.53.46-.88,1-1.18,1.51l-1.08,1.79c-.41.6-.86,1.1-1.38,1.52-.03-.43-.25-.79-.59-1.01-.42-.26-.98-.24-1.39.06-.35.25-.7.41-1.06.47-.09.02-.12,0-.16-.04-.16-.15-.29-.32-.4-.52-.23-.42-.57-.96-1.12-1.38-.59-.45-1.29-.73-2.08-.82ZM20.77,245.73s-.02-.02-.03-.02c0,0,.02,0,.03-.02,0,.01,0,.03,0,.04ZM17.74,292.67c-.25,1.63-1.12,3.06-2.45,4.04-.68.5-1.44.85-2.24,1.04-.76.18-1.56.21-2.35.09-1.63-.25-3.06-1.12-4.04-2.45-.98-1.33-1.38-2.96-1.13-4.59.25-1.63,1.12-3.06,2.45-4.04.68-.5,1.44-.85,2.24-1.04.76-.18,1.56-.21,2.35-.09,1.63.25,3.06,1.12,4.04,2.45.98,1.33,1.38,2.96,1.13,4.59ZM17.2,275c-.25,1.63-1.12,3.06-2.45,4.04-.68.5-1.44.85-2.24,1.04-.76.18-1.56.21-2.35.09-1.63-.25-3.06-1.12-4.04-2.45-.98-1.33-1.38-2.96-1.12-4.59.25-1.63,1.12-3.07,2.45-4.04.68-.5,1.44-.85,2.24-1.04.76-.18,1.56-.21,2.35-.09,1.63.25,3.06,1.12,4.04,2.45.98,1.33,1.38,2.96,1.13,4.59ZM15.55,261.7c-3.6.85-7.22-1.39-8.07-4.99-.85-3.6,1.39-7.22,4.99-8.07,3.6-.85,7.22,1.39,8.07,4.99.85,3.6-1.39,7.22-4.99,8.07ZM31.79,288.32c-.68.5-1.44.85-2.24,1.03-.76.18-1.56.21-2.35.09-1.63-.25-3.06-1.12-4.04-2.45-2.01-2.74-1.42-6.62,1.32-8.63.69-.5,1.45-.85,2.23-1.03,2.34-.55,4.89.3,6.4,2.35,2.01,2.74,1.42,6.61-1.32,8.63ZM33.62,270.29c-.69.51-1.45.85-2.23,1.03-2.34.55-4.89-.3-6.4-2.36-2.01-2.74-1.42-6.61,1.32-8.63.69-.5,1.45-.85,2.23-1.03,2.34-.55,4.89.3,6.4,2.35,2.01,2.74,1.42,6.61-1.32,8.63ZM27.42,254.52c-.61.14-1.21.34-1.78.58,0-.86-.1-1.73-.31-2.6-.08-.35-.19-.7-.3-1.04,1.49-.23,3.47-.72,5.19-1.82.94.66,1.67.31,1.96.12h0c.96-.65,1.77-1.51,2.32-2.46.43.22.89.35,1.39.4.55.05,1.06-.17,1.42-.63,1.08-1.35,1.6-3.07,1.48-4.86.8.64,1.64,1.04,2.52,1.2.52.09,1.01-.05,1.37-.4.86-.82,1.53-1.76,2.02-2.79,1.19-2.53,1.27-5.48.23-7.95.46-.28.86-.63,1.18-1.03.47-.58.48-1.33.03-1.85-.94-1.24-2.01-2.23-3.18-2.96-.43-.27-.87-.47-1.3-.64.78-.42,1.63-.87,2.51-1.26,2.83-1.27,6.36-2.83,9.42-2.06,1.35.34,2.34,1.07,2.88,2.11.62,1.2.61,2.74,0,4.33-.8,2.04-2.28,3.65-3.85,5.36-.62.68-1.24,1.36-1.82,2.06-2.5,3.05-4.58,8.27-2.21,12.92.57,1.12,1.39,2.03,2.52,2.8-.95.42-1.85.93-2.68,1.61-.56.41-.74,1.11-.47,1.74.22.5.53.96.92,1.37-1.54,2.07-2.19,4.83-1.75,7.49.04.23.13.45.18.67-1.5-.29-3.08-.28-4.64.09-.56.13-1.11.31-1.65.53.06-2.36-.64-4.76-2.14-6.81-2.64-3.59-7.15-5.25-11.49-4.23ZM48.9,280.81c-.69.51-1.45.85-2.23,1.03-2.34.55-4.89-.3-6.4-2.36-.98-1.33-1.38-2.96-1.13-4.59.25-1.63,1.12-3.06,2.45-4.04.69-.5,1.45-.85,2.23-1.03,2.34-.55,4.89.3,6.4,2.35,2.01,2.74,1.42,6.61-1.32,8.63ZM79.14,256.09c-.48.11-.83.42-.97.87-.09.29-.06.61.07.89-.35,0-.72-.03-1.07-.11l-2.15-.46c-.81-.18-1.81-.39-2.8.01h-.03c-.16.09-.63.34-.85.96-.02.06-.04.12-.05.18-.13.86.38,1.63,1.35,2.06.64.29,1.27.37,1.86.43l2.07.21c.71.12,1.35.31,1.95.6-.37.21-.61.56-.66.96-.06.49.2.98.64,1.23.37.21.66.46.88.76.05.07.05.1.03.16-.06.2-.16.4-.3.58-.28.39-.62.92-.77,1.59-.16.72-.12,1.47.14,2.22.12.35.2.69.24,1.03-.28,0-.56-.01-.85-.06-.83-.14-1.6-.07-2.3.23-.66.28-1.06.68-1.39,1.01-.22.22-.39.39-.6.48-.02,0-.05.02-.16-.03-.31-.15-.61-.38-.9-.71-.29-.33-.76-.49-1.19-.4-.25.05-.47.17-.64.36-.02.02-.04.05-.06.07-.1.13-.18.27-.24.43-.75-1.01-1.12-2.18-1.46-3.41l-.37-1.15c-.23-.72-.96-1.84-2.04-1.98-.65-.09-1.26.23-1.55.81-.16.32-.24.68-.22,1.03.02.36.06.83.26,1.31l1.24,2.96c.11.27.21.59.27.9-.24-.06-.47-.05-.63,0-.43.11-.9.54-.92,1.11-.02.73-.23,1.46-.62,2.11l-.19-.09c-1.17-.55-2.32-1.47-2.93-2.34-.21-.31-.5-.49-.83-.55-.36-.06-.64.06-.87.19-.41-.66-.59-1.36-.54-2.07.04-.53-.3-1.06-.81-1.26-.19-.07-.7-.2-1.27.22-.17.13-.35.22-.52.29-.03-.07-.08-.13-.12-.2-.06-.42-.06-.87.04-1.33.14-.72.5-1.43,1.05-2.11.56-.67,1.16-1.44,1.21-2.28.05-.83-.53-1.51-1.36-1.58-.79-.07-1.51.45-2.04.91l-.13.11c-.39.34-.76.66-1.16.97-.43.34-1.08.69-1.63.81-.59-1.19-.76-2.57-.5-3.94.25-1.28.83-2.38,1.69-3.17.3-.27.46-.69.42-1.08-.04-.39-.28-.76-.64-.98-.13-.08-.24-.15-.33-.23,1.1-.68,2.21-1.03,3.12-.97.52.04.97.26,1.26.6.23.28.42.66.62,1.05.22.44.45.9.79,1.34.67.87,1.56,1.4,2.5,1.49.57.06,1.15-.05,1.67-.31l.68.56-.45,4.4c-.07.68.45,1.18,1,1.27.32.05.65-.03.91-.23.07-.05.14-.12.19-.19.14-.17.23-.38.26-.61l.29-2.83,6.03,4.97c.55.45,1.3.29,1.69-.14.23-.25.35-.59.33-.92-.02-.34-.18-.64-.44-.85l-6.03-4.97,2.73-.82c.22-.07.41-.19.56-.37.06-.07.1-.14.14-.22.15-.29.16-.63.05-.94-.18-.49-.71-.89-1.31-.77l-4.37,1.3-.68-.56c.16-.52.17-1.07.03-1.6-.23-.89-.86-1.66-1.77-2.17-.57-.32-1.11-.47-1.64-.62-.37-.1-.72-.2-1.05-.35-1.03-.47-1.1-1.72-1.05-2.43.05-.65.2-1.33.46-2,.1.08.19.18.29.28.28.29.66.45,1.04.43.4-.02.79-.26,1.02-.62.49-.76,1.07-1.33,1.76-1.75,1.6-.96,3.32-1.23,4.99-.78-.01.55-.21,1.28-.51,1.81l-.77,1.38-.42.87c-.17.35-.22.76-.15,1.18.08.43.33.8.68,1.02.36.22.8.28,1.21.16.43-.13.83-.37,1.13-.7l.79-.87c.38-.42.74-.82,1.17-1.12.74-.51,1.58-.77,2.41-.74-.03.19-.11.4-.23.63-.22.45-.18.98.1,1.34.31.41.85.6,1.34.47.69-.18,1.39-.14,2.12.14-.09.24-.15.55-.02.89.12.32.37.57.72.72,1.22.53,2.26,1.65,2.97,2.58-.56.51-1.15.82-1.85.98Z"/>
    </g>
  </g>
</svg>