<?xml version="1.0" encoding="UTF-8"?>
<svg id="Capa_2" data-name="Capa 2" xmlns="http://www.w3.org/2000/svg" viewBox="0 0 141.42 40.23">
  <defs>
    <style>
      .cls-1 {
        fill: #060703;
      }
    </style>
  </defs>
  <g id="Capa_1-2" data-name="Capa 1">
    <g>
      <path class="cls-1" d="M8.05,13.26c0,2.75-1.37,4.32-4.03,4.32S0,16.01,0,13.26V4.32C0,1.57,1.37,0,4.03,0s4.03,1.57,4.03,4.32v1.67h-2.55v-1.84c0-1.23-.54-1.69-1.4-1.69s-1.4.47-1.4,1.69v9.28c0,1.23.54,1.67,1.4,1.67s1.4-.44,1.4-1.67v-2.46h2.55v2.28Z"/>
      <path class="cls-1" d="M15.7,17.38l-.47-3.12h-3.31l-.47,3.12h-2.48L11.72.2h3.95l2.75,17.19h-2.73ZM14.87,11.93l-1.3-8.69-1.3,8.69h2.6Z"/>
      <path class="cls-1" d="M27.75,4.44v2.23c0,2.75-1.33,4.25-4.03,4.25h-1.28v6.46h-2.7V.2h3.98c2.7,0,4.03,1.5,4.03,4.25ZM22.44,8.47h1.28c.86,0,1.33-.39,1.33-1.62v-2.58c0-1.23-.47-1.62-1.33-1.62h-1.28v5.82Z"/>
      <path class="cls-1" d="M31.82.2v17.19h-2.7V.2h2.7Z"/>
      <path class="cls-1" d="M41.44.2v2.45h-2.82v14.73h-2.7V2.65h-2.82V.2h8.35Z"/>
      <path class="cls-1" d="M47.92,17.38l-.47-3.12h-3.31l-.47,3.12h-2.48L43.94.2h3.95l2.75,17.19h-2.73ZM47.09,11.93l-1.3-8.69-1.3,8.69h2.6Z"/>
      <path class="cls-1" d="M54.66.2v14.73h4.44v2.45h-7.14V.2h2.7Z"/>
      <path class="cls-1" d="M4.49,22.84c2.7,0,4.03,1.5,4.03,4.25v8.69c0,2.75-1.33,4.25-4.03,4.25H.22v-17.19h4.27ZM2.92,37.57h1.52c.86,0,1.38-.44,1.38-1.67v-8.94c0-1.23-.52-1.67-1.38-1.67h-1.52v12.28Z"/>
      <path class="cls-1" d="M16.51,30.09v2.46h-3.71v5.03h4.66v2.45h-7.37v-17.19h7.37v2.45h-4.66v4.79h3.71Z"/>
      <path class="cls-1" d="M25.64,22.84v14.73h4.44v2.45h-7.14v-17.19h2.7Z"/>
      <path class="cls-1" d="M37.75,40.03l-.47-3.12h-3.31l-.47,3.12h-2.48l2.75-17.19h3.95l2.75,17.19h-2.73ZM36.91,34.58l-1.3-8.69-1.3,8.69h2.6Z"/>
      <path class="cls-1" d="M53.09,22.84h3.76v17.19h-2.55v-12.33l-1.87,12.33h-2.55l-2.01-12.15v12.15h-2.36v-17.19h3.76l1.99,12.2,1.84-12.2Z"/>
      <path class="cls-1" d="M62.57,22.65c2.65,0,4.1,1.57,4.1,4.32v8.94c0,2.75-1.45,4.32-4.1,4.32s-4.1-1.57-4.1-4.32v-8.94c0-2.75,1.45-4.32,4.1-4.32ZM62.57,37.77c.86,0,1.4-.47,1.4-1.69v-9.28c0-1.23-.54-1.69-1.4-1.69s-1.4.47-1.4,1.69v9.28c0,1.23.54,1.69,1.4,1.69Z"/>
      <path class="cls-1" d="M70.7,40.03h-2.43v-17.19h3.39l2.77,10.29v-10.29h2.41v17.19h-2.77l-3.36-12.45v12.45Z"/>
      <path class="cls-1" d="M84.87,40.03l-.47-3.12h-3.31l-.47,3.12h-2.48l2.75-17.19h3.95l2.75,17.19h-2.73ZM84.03,34.58l-1.3-8.69-1.3,8.69h2.6Z"/>
      <path class="cls-1" d="M92.52,22.65c2.63,0,3.98,1.57,3.98,4.32v.54h-2.55v-.71c0-1.23-.49-1.69-1.35-1.69s-1.35.47-1.35,1.69c0,3.54,5.28,4.2,5.28,9.11,0,2.75-1.37,4.32-4.03,4.32s-4.03-1.57-4.03-4.32v-1.06h2.55v1.23c0,1.23.54,1.67,1.4,1.67s1.4-.44,1.4-1.67c0-3.54-5.28-4.2-5.28-9.11,0-2.75,1.35-4.32,3.98-4.32Z"/>
      <path class="cls-1" d="M105.87,22.84v2.45h-2.82v14.73h-2.7v-14.73h-2.82v-2.45h8.35Z"/>
      <path class="cls-1" d="M112.55,37.92v-2.7c0-1.6-.54-2.19-1.77-2.19h-.93v7h-2.7v-17.19h4.08c2.8,0,4,1.3,4,3.95v1.35c0,1.77-.57,2.92-1.77,3.49,1.35.56,1.79,1.87,1.79,3.66v2.65c0,.84.02,1.45.29,2.09h-2.75c-.15-.44-.25-.71-.25-2.11ZM109.85,30.58h1.06c1.01,0,1.62-.44,1.62-1.82v-1.69c0-1.23-.42-1.77-1.37-1.77h-1.3v5.28Z"/>
      <path class="cls-1" d="M123.38,30.09v2.46h-3.71v5.03h4.66v2.45h-7.37v-17.19h7.37v2.45h-4.66v4.79h3.71Z"/>
      <path class="cls-1" d="M128.56,22.84v14.73h4.44v2.45h-7.14v-17.19h2.7Z"/>
      <path class="cls-1" d="M136.98,22.84v14.73h4.44v2.45h-7.14v-17.19h2.7Z"/>
    </g>
  </g>
</svg>