<?xml version="1.0" encoding="UTF-8"?>
<svg id="Capa_2" data-name="Capa 2" xmlns="http://www.w3.org/2000/svg" viewBox="0 0 63.44 67.18">
  <defs>
    <style>
      .cls-1 {
        fill: #85004d;
      }
    </style>
  </defs>
  <g id="Capa_1-2" data-name="Capa 1">
    <path class="cls-1" d="M63.28,31.01c-.61-.95-1.61-2.24-2.98-3.1.15-.83-.31-1.22-.53-1.35h0c-.74-.44-1.57-.71-2.37-.78,0-.35-.05-.7-.17-1.05-.14-.38-.44-.65-.87-.76-1.24-.3-2.55-.11-3.71.53.18-.73.19-1.42.01-2.06-.1-.38-.35-.66-.69-.79-.82-.31-1.66-.48-2.5-.48-2.07,0-4.06.87-5.39,2.33-.33-.22-.69-.38-1.06-.47-.53-.13-1.04.1-1.25.56-.53,1.02-.86,2.04-.98,3.05-.05.39-.03.76,0,1.12-.49-.21-.99-.45-1.41-.77-1.25-.99-1.07-2.94-.86-4.02.26-1.28.81-2.12,1.69-3.15.29-.34.59-.68.89-1.02,2.17-2.46,4.63-5.25,4.11-8.98-.55-4-4.57-5.68-8.07-5.23-2.14.27-4.41,1.05-6.89,2.31.03-.83-.02-1.66-.24-2.48-.1-.5-.51-.84-1.02-.86-.4-.01-.81.05-1.2.19-.9-1.68-2.55-2.98-4.46-3.51-.88-.25-1.79-.31-2.72-.2-.38.05-.69.26-.88.6-.32.57-.49,1.23-.49,1.94,0,.04,0,.09,0,.13-.37-.34-.77-.62-1.21-.84-.7-.36-1.44-.55-2.21-.56-.48,0-.88.23-1.11.66-.15.28-.26.59-.33.9-.79-.13-1.66-.07-2.46.18-.52.14-.84.57-.88,1.19-1.2.39-2.39,1.14-3.63,2.27-.33.3-.44.79-.26,1.2.33.78.86,1.51,1.5,2.07-.04.07-.07.15-.1.22-.21.55-.07,1.15.36,1.53-.21.07-.41.15-.6.24-.55.28-.83.82-.73,1.41.03.19.09.38.17.56-1.06.73-1.15,1.67-1.09,2.18.04.38.14.77.31,1.18.17.4.12.79-.13,1.15-.5.71-.81,1.43-.94,2.19-.03.2-.02.4.05.58,0,.02.02.05.03.07.1.21.27.38.48.5.72.39,1.5.63,2.39.74.39.04.71.27.91.65.08.16.18.29.27.42-.56.02-1.12.09-1.68.22-4.61,1.08-7.47,5.72-6.39,10.32.43,1.84,1.43,3.4,2.77,4.54-.49.23-.97.51-1.41.83-1.76,1.29-2.92,3.2-3.25,5.36-.33,2.16.2,4.33,1.49,6.09.53.72,1.15,1.33,1.86,1.83-1.59,1.28-2.64,3.09-2.95,5.13-.33,2.16.2,4.33,1.49,6.09,1.29,1.76,3.2,2.92,5.36,3.25,1.05.16,2.1.12,3.12-.12,1.07-.25,2.07-.71,2.96-1.37,1.77-1.3,2.92-3.2,3.25-5.36.02-.11.03-.21.04-.32.86.49,1.8.82,2.8.97,1.05.16,2.1.12,3.12-.12,1.07-.25,2.07-.71,2.96-1.37,1.81-1.33,2.92-3.28,3.24-5.34,1.85,1.24,4.17,1.7,6.43,1.17,1.07-.25,2.07-.71,2.96-1.37,2.25-1.65,3.4-4.24,3.33-6.83.18.29.37.58.6.83.35.41.88.51,1.45.3.86.92,2.04,1.68,3.6,2.33.41.17.9.06,1.19-.27.57-.63,1-1.42,1.24-2.23.08,0,.16,0,.24,0,.59-.04,1.07-.42,1.23-.98.15.16.31.31.48.44.48.38,1.09.4,1.59.06.16-.11.3-.24.43-.39,1.11.65,2,.33,2.44.06.33-.2.64-.46.94-.78.29-.33.67-.45,1.1-.37.85.15,1.63.13,2.38-.08.2-.05.37-.16.51-.3.02-.02.04-.04.05-.06.15-.18.23-.4.25-.65.05-.82-.06-1.63-.35-2.48-.12-.37-.05-.76.2-1.1.32-.43.53-.85.65-1.29.14-.54.14-1.33-.6-2.15.2-.24.33-.51.39-.76.08-.35.01-.7-.19-.97-.18-.24-.44-.48-.79-.7.12-.07.23-.15.33-.24.33-.32.47-.74.4-1.2-.01-.06-.02-.13-.04-.19.77-.41,1.43-.96,1.95-1.64.26-.34.28-.83.04-1.2ZM10.13,19.7c-.27-.03-.53-.08-.77-.16.08-.19.19-.37.31-.55.36-.51.55-1.05.57-1.62.02-.53-.12-.93-.24-1.26-.08-.22-.14-.39-.13-.56,0-.02,0-.04.07-.1.2-.16.45-.29.76-.38.32-.09.57-.36.65-.68.04-.18.03-.37-.04-.55,0-.02-.02-.04-.03-.07-.05-.11-.12-.21-.21-.29.91-.19,1.82-.07,2.75.09l.89.11c.55.07,1.54-.07,1.98-.75.26-.41.24-.92-.06-1.3-.16-.21-.39-.37-.63-.47-.25-.1-.58-.22-.96-.24l-2.38-.1c-.22,0-.46-.05-.69-.1.12-.14.18-.3.2-.43.06-.33-.08-.78-.46-.97-.49-.24-.91-.61-1.23-1.08l.12-.1c.74-.61,1.71-1.1,2.5-1.23.27-.05.49-.18.63-.39.15-.22.17-.45.14-.65.57-.07,1.1.03,1.56.29.35.19.81.13,1.1-.15.11-.11.36-.41.25-.92-.04-.19-.05-.36-.04-.52.37.08.72.25,1.06.51.44.32.8.78,1.09,1.37.27.59.61,1.24,1.15,1.53.54.3,1.19.12,1.5-.42.29-.51.17-1.16.03-1.66l-.04-.13c-.1-.37-.2-.72-.29-1.09-.09-.4-.13-.94-.03-1.35.98-.02,1.97.3,2.81.9.79.57,1.34,1.31,1.6,2.14.09.28.32.52.59.62.28.1.6.05.86-.12.09-.06.18-.11.26-.15.11.95,0,1.81-.33,2.4-.19.34-.48.57-.8.66-.26.07-.57.08-.9.08-.37,0-.75.02-1.15.11-.79.18-1.43.61-1.79,1.21-.22.37-.33.79-.31,1.22l-.59.28-2.82-1.69c-.44-.26-.94-.07-1.17.27-.14.2-.19.45-.13.68.01.06.03.13.06.19.07.15.19.28.33.36l1.81,1.09-5.24,2.5c-.48.23-.6.78-.44,1.18.1.23.29.42.52.51.23.09.49.08.71-.03l5.24-2.49-.31,2.09c-.02.17,0,.34.07.49.03.06.06.11.1.17.15.19.37.31.62.33.38.03.82-.2.93-.64l.5-3.35.59-.28c.3.27.67.45,1.06.52.67.12,1.39-.06,2.02-.51.39-.28.67-.6.94-.91.19-.22.36-.42.57-.59.64-.55,1.51-.2,1.96.05.43.24.83.55,1.2.94-.09.04-.18.07-.28.11-.29.09-.51.3-.62.56-.11.27-.07.61.1.88.36.57.56,1.14.62,1.73.14,1.38-.22,2.62-1.04,3.6-.37-.18-.8-.55-1.06-.91l-.69-.95-.45-.56c-.19-.23-.44-.39-.75-.47-.31-.08-.64-.03-.9.14-.26.17-.44.45-.49.77-.05.33-.01.68.12.98l.34.8c.16.39.32.75.39,1.14.11.66.02,1.31-.26,1.85-.12-.08-.24-.2-.36-.35-.23-.29-.6-.43-.93-.36-.37.08-.67.38-.73.75-.1.52-.34.98-.76,1.38-.14-.14-.32-.27-.59-.29-.25-.02-.5.07-.71.26-.74.66-1.82,1-2.67,1.18-.16-.53-.19-1.03-.08-1.55.08-.36-.02-.69-.28-.92-.17-.15-.39-.23-.62-.23.12-.24.25-.47.41-.69l.99-1.3c.37-.49.83-1.09.87-1.89v-.02c0-.13-.02-.52-.37-.87-.03-.03-.07-.06-.11-.09-.54-.36-1.22-.26-1.81.26-.39.34-.65.74-.87,1.12l-.79,1.32c-.3.44-.64.81-1.02,1.12-.03-.32-.18-.59-.44-.75-.31-.19-.72-.18-1.03.04-.26.18-.52.3-.78.35-.07.01-.09,0-.12-.03-.12-.11-.22-.24-.3-.38-.17-.31-.42-.71-.83-1.02-.43-.34-.95-.54-1.53-.61ZM15.33,25.02s-.02-.01-.03-.02c0,0,.01,0,.02-.01,0,.01,0,.02,0,.03ZM13.1,59.68c-.19,1.2-.83,2.26-1.81,2.98-.5.37-1.06.63-1.65.76-.56.13-1.15.16-1.74.07-1.2-.18-2.26-.83-2.98-1.81-.72-.98-1.02-2.18-.83-3.39.19-1.2.83-2.26,1.81-2.98.5-.37,1.06-.63,1.65-.76.56-.13,1.15-.16,1.74-.07,1.2.18,2.26.83,2.98,1.81.72.98,1.02,2.18.83,3.39ZM12.7,46.63c-.19,1.2-.83,2.26-1.81,2.98-.5.37-1.06.63-1.65.76-.56.13-1.15.16-1.74.07-1.2-.19-2.26-.83-2.98-1.81-.72-.98-1.02-2.18-.83-3.39s.83-2.26,1.81-2.98c.5-.37,1.06-.63,1.65-.76.56-.13,1.15-.16,1.74-.07,1.2.19,2.26.83,2.98,1.81.72.98,1.02,2.18.83,3.39ZM11.48,36.81c-2.66.63-5.33-1.03-5.96-3.69-.63-2.66,1.03-5.33,3.69-5.96,2.66-.63,5.33,1.03,5.96,3.69.63,2.66-1.03,5.33-3.69,5.96ZM23.47,56.46c-.5.37-1.06.62-1.65.76-.56.13-1.15.16-1.74.07-1.2-.18-2.26-.83-2.98-1.81-1.49-2.03-1.05-4.88.98-6.37.51-.37,1.07-.62,1.65-.76,1.73-.41,3.61.22,4.73,1.74,1.49,2.03,1.05,4.88-.98,6.37ZM24.83,43.15c-.51.37-1.07.62-1.65.76-1.73.41-3.61-.22-4.72-1.74-1.49-2.03-1.05-4.88.98-6.37.51-.37,1.07-.62,1.65-.76,1.73-.41,3.61.22,4.73,1.74,1.49,2.03,1.05,4.88-.98,6.37ZM20.24,31.51c-.45.11-.89.25-1.31.43,0-.63-.08-1.28-.23-1.92-.06-.26-.14-.52-.22-.77,1.1-.17,2.56-.53,3.83-1.35.69.49,1.23.23,1.45.09h0c.71-.48,1.31-1.12,1.71-1.82.32.16.66.25,1.03.29.41.04.78-.13,1.05-.47.8-1,1.18-2.27,1.09-3.59.59.48,1.21.77,1.86.88.39.07.75-.04,1.01-.29.63-.61,1.13-1.3,1.49-2.06.88-1.87.93-4.05.17-5.87.34-.21.63-.46.87-.76.34-.43.35-.98.03-1.37-.7-.91-1.48-1.65-2.35-2.18-.32-.2-.64-.35-.96-.47.58-.31,1.21-.64,1.86-.93,2.09-.93,4.69-2.09,6.96-1.52.99.25,1.73.79,2.12,1.56.46.89.45,2.02,0,3.2-.59,1.5-1.68,2.7-2.84,3.96-.46.5-.92,1-1.34,1.52-1.84,2.25-3.38,6.1-1.63,9.54.42.82,1.02,1.5,1.86,2.07-.7.31-1.37.69-1.98,1.19-.41.3-.55.82-.35,1.29.16.37.39.71.68,1.01-1.14,1.52-1.62,3.57-1.29,5.53.03.17.09.33.13.5-1.11-.21-2.27-.21-3.42.06-.42.1-.82.23-1.21.39.04-1.75-.47-3.52-1.58-5.03-1.95-2.65-5.28-3.88-8.48-3.12ZM36.1,50.92c-.51.37-1.07.62-1.65.76-1.73.41-3.61-.22-4.72-1.74-.72-.98-1.02-2.18-.83-3.39.18-1.2.83-2.26,1.81-2.98.51-.37,1.07-.62,1.65-.76,1.73-.41,3.61.22,4.72,1.74,1.49,2.03,1.05,4.88-.98,6.37ZM58.43,32.67c-.35.08-.61.31-.71.64-.07.21-.04.45.05.65-.26,0-.53-.02-.79-.08l-1.59-.34c-.59-.13-1.34-.29-2.06.01h-.02c-.11.07-.46.25-.63.71-.02.04-.03.09-.03.13-.09.63.28,1.2,1,1.52.47.21.94.27,1.37.32l1.53.16c.53.09,1,.23,1.44.44-.28.16-.45.41-.49.71-.04.36.15.72.47.91.28.16.49.34.65.56.04.05.04.08.02.12-.05.15-.12.29-.22.43-.21.29-.46.68-.57,1.17-.12.53-.09,1.08.1,1.64.09.26.15.51.18.76-.21,0-.41,0-.63-.05-.61-.11-1.18-.05-1.7.17-.49.21-.78.5-1.03.75-.16.16-.29.29-.45.36-.01,0-.04.02-.12-.02-.23-.11-.45-.28-.66-.52-.22-.25-.56-.36-.88-.3-.18.04-.35.13-.48.26-.02.02-.03.03-.05.05-.08.09-.13.2-.17.32-.55-.74-.83-1.61-1.08-2.52l-.27-.85c-.17-.53-.71-1.36-1.51-1.46-.48-.06-.93.17-1.14.6-.12.23-.17.5-.16.76.01.27.04.61.19.97l.91,2.19c.08.2.15.44.2.67-.18-.04-.35-.03-.47,0-.32.08-.67.4-.68.82-.01.54-.17,1.08-.46,1.56l-.14-.07c-.86-.4-1.71-1.08-2.16-1.73-.16-.23-.37-.37-.61-.4-.26-.04-.48.04-.64.14-.3-.49-.44-1-.4-1.53.03-.39-.22-.78-.6-.93-.14-.05-.52-.15-.93.16-.13.1-.26.16-.38.21-.03-.05-.06-.1-.09-.15-.04-.31-.04-.64.03-.99.11-.53.37-1.05.77-1.55.41-.49.86-1.07.9-1.68.04-.62-.39-1.12-1.01-1.17-.59-.05-1.11.33-1.51.67l-.1.08c-.29.25-.56.49-.86.72-.32.25-.79.51-1.2.6-.43-.88-.56-1.9-.37-2.91.18-.95.61-1.76,1.25-2.34.22-.2.34-.51.31-.79-.03-.29-.2-.56-.47-.73-.09-.06-.17-.11-.25-.17.81-.5,1.63-.76,2.3-.71.38.03.72.19.93.44.17.21.31.48.45.78.16.33.33.67.58.99.49.64,1.15,1.03,1.85,1.1.42.04.85-.04,1.23-.23l.5.41-.33,3.25c-.05.5.34.87.74.94.24.04.48-.02.67-.17.05-.04.1-.09.14-.14.11-.13.17-.28.19-.45l.22-2.09,4.46,3.67c.41.34.96.21,1.25-.1.17-.19.26-.44.24-.68-.02-.25-.13-.47-.32-.63l-4.45-3.67,2.01-.61c.16-.05.3-.14.41-.27.04-.05.08-.1.11-.16.11-.22.12-.47.04-.69-.13-.36-.52-.65-.97-.57l-3.22.96-.5-.41c.12-.39.12-.79.02-1.18-.17-.66-.64-1.23-1.31-1.61-.42-.24-.82-.35-1.21-.46-.27-.08-.53-.15-.77-.26-.76-.35-.82-1.27-.78-1.79.03-.48.15-.98.34-1.48.07.06.14.13.22.21.21.22.48.33.77.32.29-.02.58-.19.75-.46.36-.56.79-.98,1.3-1.29,1.18-.71,2.45-.9,3.68-.58-.01.41-.16.95-.37,1.34l-.57,1.02-.31.64c-.13.26-.16.56-.11.87.06.31.24.59.51.75.26.16.59.21.9.12.32-.09.62-.28.83-.52l.58-.64c.28-.31.55-.6.87-.83.54-.38,1.17-.57,1.78-.55-.03.14-.08.3-.17.47-.16.33-.14.72.07.99.23.3.63.44.99.35.51-.14,1.03-.1,1.57.1-.07.18-.11.41-.02.65.09.23.27.42.53.53.9.39,1.67,1.22,2.19,1.91-.41.37-.85.6-1.37.72Z"/>
  </g>
</svg>