<?xml version="1.0" encoding="UTF-8"?>
<svg id="Capa_2" data-name="Capa 2" xmlns="http://www.w3.org/2000/svg" viewBox="0 0 259.01 65.98">
  <defs>
    <style>
      .cls-1 {
        fill: #fafbfc;
      }

      .cls-2 {
        fill: #d2e667;
      }
    </style>
  </defs>
  <g id="Capa_1-2" data-name="Capa 1">
    <g>
      <path class="cls-1" d="M19.95,21.88c-1.83,1.72-4.2,2.58-7.11,2.58-3.3,0-5.95-1.11-7.94-3.35-1.99-2.23-2.99-5.2-2.99-8.9,0-2.23.43-4.26,1.28-6.09.85-1.83,2.13-3.31,3.84-4.43,1.71-1.13,3.71-1.69,6.01-1.69,2.47,0,4.63.69,6.47,2.05s2.94,3.34,3.32,5.92h-4.07c-.28-1.4-.94-2.5-1.97-3.3-1.03-.8-2.3-1.2-3.81-1.2s-2.87.44-3.95,1.31c-1.08.88-1.85,1.95-2.3,3.23-.45,1.28-.67,2.67-.67,4.18,0,1.14.13,2.21.39,3.22.26,1.01.66,1.93,1.18,2.77.52.84,1.24,1.51,2.15,2.02.91.5,1.96.76,3.17.76,3.48,0,5.47-1.99,5.97-5.97h4.1c-.22,2.87-1.24,5.16-3.07,6.88"/>
      <path class="cls-1" d="M34.96,10.21c-.66-.06-1.1-.1-1.31-.1-3.26,0-4.89,2.11-4.89,6.33v7.45h-3.71V6.96h3.51v3.38c1.2-2.52,3.1-3.77,5.68-3.77l.72.07v3.58Z"/>
      <path class="cls-1" d="M48.42,22.91c-1.39,1.03-3.05,1.54-4.97,1.54-2.56,0-4.59-.82-6.09-2.48-1.5-1.65-2.25-3.77-2.25-6.35s.77-4.83,2.31-6.56c1.54-1.73,3.51-2.59,5.89-2.59s4.43.85,5.88,2.54c1.44,1.7,2.17,4.01,2.17,6.94v.39h-12.51c.04,1.71.47,3.03,1.28,3.95.81.93,1.94,1.4,3.38,1.4,1.03,0,1.87-.25,2.51-.74.65-.49,1.15-1.28,1.53-2.35h3.58c-.42,1.84-1.32,3.27-2.71,4.3M46.29,10.49c-.78-.82-1.78-1.23-3-1.23s-2.22.39-2.97,1.18c-.75.79-1.22,1.93-1.4,3.41h8.7c-.11-1.42-.55-2.54-1.33-3.36"/>
      <path class="cls-1" d="M60.53,6.43c2.12,0,3.81.42,5.07,1.25,1.26.83,1.89,2.12,1.89,3.87v8.6c0,.48.06.81.18.98.12.17.36.26.71.26.26,0,.55-.02.85-.07v2.63c-.96.24-1.77.36-2.43.36-1.6,0-2.52-.68-2.76-2.04-1.42,1.36-3.4,2.04-5.94,2.04-1.75,0-3.14-.46-4.17-1.36-1.03-.91-1.54-2.14-1.54-3.69,0-.48.06-.93.16-1.35.11-.42.24-.78.38-1.08.14-.31.37-.59.69-.85.32-.26.58-.48.79-.66.21-.17.55-.34,1.02-.49.47-.15.82-.27,1.05-.34.23-.08.63-.16,1.2-.25.57-.09.95-.15,1.13-.18s.57-.08,1.17-.15c1.33-.17,2.24-.32,2.72-.44s.81-.3.99-.54c.15-.17.23-.58.23-1.21,0-1.71-1.16-2.56-3.48-2.56-1.22,0-2.12.23-2.69.69-.57.46-.93,1.24-1.08,2.33h-3.54c.39-3.83,2.87-5.74,7.42-5.74M62.89,15.8c-.37.12-.67.2-.9.23-.23.03-.59.08-1.08.15-.49.06-.82.11-.97.13-.46.06-.82.13-1.08.18-.26.06-.58.15-.97.28-.38.13-.68.29-.89.47-.21.19-.39.44-.54.76-.15.32-.23.7-.23,1.13,0,.81.27,1.43.81,1.87.54.44,1.28.66,2.25.66,1.66,0,2.94-.45,3.84-1.35.5-.5.76-1.48.76-2.92v-2c-.28.15-.61.29-.98.41"/>
      <path class="cls-1" d="M74.23,9.35c1.4-1.9,3.17-2.85,5.32-2.85,1.12,0,2.08.25,2.91.75.82.5,1.43,1.22,1.82,2.13,1.36-1.93,3.18-2.89,5.48-2.89,1.6,0,2.92.48,3.97,1.43,1.05.95,1.58,2.27,1.58,3.95v12.01h-3.74v-10.4c0-1.2-.21-2.15-.62-2.82-.42-.68-1.21-1.02-2.39-1.02s-2.12.38-2.76,1.13c-.63.76-.95,1.81-.95,3.17v9.94h-3.74v-10.6c0-1.2-.18-2.11-.54-2.72-.36-.61-1.11-.92-2.25-.92-1.27,0-2.23.41-2.89,1.23-.66.82-.99,1.91-.99,3.27v9.75h-3.74V6.96h3.55v2.4Z"/>
      <path class="cls-1" d="M112.22,8.9c1.53,1.62,2.3,3.8,2.3,6.53s-.76,4.95-2.28,6.56c-1.52,1.62-3.58,2.43-6.19,2.43s-4.75-.81-6.3-2.43c-1.55-1.62-2.33-3.81-2.33-6.56s.78-4.91,2.35-6.53c1.56-1.62,3.66-2.43,6.28-2.43s4.64.81,6.17,2.43M102.47,11.03c-.85,1.07-1.28,2.54-1.28,4.4s.43,3.39,1.28,4.46c.85,1.07,2.03,1.61,3.54,1.61s2.62-.54,3.46-1.62c.84-1.08,1.26-2.58,1.26-4.48s-.42-3.32-1.26-4.38c-.84-1.06-2.01-1.59-3.5-1.59s-2.66.54-3.51,1.61"/>
      <path class="cls-1" d="M126.44,11.88c-.22-1.79-1.44-2.69-3.68-2.69-.96,0-1.71.17-2.23.53-.53.35-.79.83-.79,1.44,0,.2.02.37.05.52.03.15.1.29.2.41.1.12.19.22.26.31.08.09.21.17.41.26.2.09.35.16.47.21.12.06.32.12.61.2.28.08.51.14.67.18.17.04.43.1.81.18s.66.14.85.18c.85.2,1.47.35,1.85.44.38.1.94.29,1.67.59.73.29,1.27.6,1.62.92.35.32.67.76.97,1.31.29.56.44,1.2.44,1.92,0,1.71-.67,3.06-2,4.07-1.33,1.01-3.13,1.51-5.38,1.51-2.41,0-4.25-.5-5.55-1.51s-1.98-2.47-2.07-4.4h3.58c.2,2.12,1.56,3.18,4.1,3.18,1.1,0,1.97-.22,2.64-.67s1-1.05,1-1.79c0-.37-.08-.69-.25-.95-.16-.26-.43-.49-.8-.67-.37-.18-.73-.33-1.07-.43-.34-.1-.79-.21-1.36-.35l-.2-.03s-.1-.04-.16-.05c-.07-.01-.13-.03-.2-.05-2.41-.59-3.94-1.05-4.59-1.38-1.55-.74-2.33-1.98-2.33-3.71,0-1.6.61-2.85,1.84-3.76,1.23-.91,2.92-1.36,5.09-1.36s3.78.45,5.1,1.35c1.32.9,1.99,2.25,1.99,4.07h-3.58Z"/>
      <path class="cls-1" d="M144.85,9.29c1.25-1.84,3.03-2.76,5.35-2.76,1.84,0,3.27.5,4.3,1.49,1.03,1,1.54,2.46,1.54,4.38v11.49h-3.77v-10.27c0-1.29-.23-2.27-.67-2.95-.45-.68-1.32-1.02-2.61-1.02-1.44,0-2.49.47-3.15,1.41-.66.94-.98,2.19-.98,3.74v9.09h-3.71V.53h3.71v8.76Z"/>
      <path class="cls-1" d="M162.71,4.1h-3.74V.43h3.74v3.68ZM162.71,23.89h-3.74V6.96h3.74v16.94Z"/>
      <path class="cls-1" d="M175.6,11.88c-.22-1.79-1.44-2.69-3.68-2.69-.96,0-1.71.17-2.23.53-.53.35-.79.83-.79,1.44,0,.2.02.37.05.52.03.15.1.29.2.41.1.12.19.22.26.31.08.09.21.17.41.26.2.09.35.16.47.21.12.06.32.12.61.2.29.08.51.14.67.18.17.04.43.1.81.18.37.08.66.14.85.18.85.2,1.47.35,1.85.44.38.1.94.29,1.67.59.73.29,1.27.6,1.62.92.35.32.67.76.97,1.31.29.56.44,1.2.44,1.92,0,1.71-.67,3.06-2,4.07-1.33,1.01-3.13,1.51-5.38,1.51-2.41,0-4.26-.5-5.55-1.51s-1.98-2.47-2.07-4.4h3.58c.2,2.12,1.57,3.18,4.1,3.18,1.1,0,1.98-.22,2.64-.67.67-.45,1-1.05,1-1.79,0-.37-.08-.69-.25-.95s-.43-.49-.8-.67c-.37-.18-.73-.33-1.07-.43-.34-.1-.79-.21-1.36-.35l-.2-.03s-.1-.04-.16-.05c-.07-.01-.13-.03-.2-.05-2.41-.59-3.94-1.05-4.59-1.38-1.55-.74-2.33-1.98-2.33-3.71,0-1.6.61-2.85,1.84-3.76,1.23-.91,2.92-1.36,5.09-1.36s3.78.45,5.1,1.35c1.32.9,1.99,2.25,1.99,4.07h-3.58Z"/>
      <path class="cls-1" d="M190.15,9.68h-3.41v8.93c0,.53.01.89.03,1.1.02.21.09.44.2.69.11.25.3.42.57.51.27.09.65.13,1.13.13.61,0,1.1-.02,1.48-.07v2.95c-.74.09-1.59.13-2.53.13-.66,0-1.23-.05-1.72-.15-.49-.1-.9-.21-1.23-.34-.33-.13-.6-.36-.82-.67-.22-.32-.39-.58-.51-.79-.12-.21-.21-.57-.26-1.1-.05-.52-.08-.92-.08-1.18v-10.14h-2.82v-2.72h2.82V1.87h3.74v5.09h3.41v2.72Z"/>
      <path class="cls-1" d="M205.37,8.9c1.53,1.62,2.3,3.8,2.3,6.53s-.76,4.95-2.28,6.56c-1.52,1.62-3.58,2.43-6.19,2.43s-4.75-.81-6.3-2.43c-1.55-1.62-2.33-3.81-2.33-6.56s.78-4.91,2.35-6.53c1.56-1.62,3.66-2.43,6.29-2.43s4.64.81,6.17,2.43M195.62,11.03c-.85,1.07-1.28,2.54-1.28,4.4s.43,3.39,1.28,4.46c.85,1.07,2.03,1.61,3.54,1.61s2.62-.54,3.46-1.62c.84-1.08,1.26-2.58,1.26-4.48s-.42-3.32-1.26-4.38c-.84-1.06-2.01-1.59-3.49-1.59s-2.66.54-3.51,1.61"/>
      <path class="cls-1" d="M219.58,10.21c-.66-.06-1.09-.1-1.31-.1-3.26,0-4.89,2.11-4.89,6.33v7.45h-3.71V6.96h3.51v3.38c1.2-2.52,3.1-3.77,5.68-3.77l.72.07v3.58Z"/>
      <path class="cls-1" d="M224.5,4.1h-3.74V.43h3.74v3.68ZM224.5,23.89h-3.74V6.96h3.74v16.94Z"/>
      <path class="cls-1" d="M234.76,6.43c2.12,0,3.81.42,5.07,1.25,1.26.83,1.89,2.12,1.89,3.87v8.6c0,.48.06.81.18.98.12.17.36.26.71.26.26,0,.55-.02.85-.07v2.63c-.96.24-1.77.36-2.43.36-1.6,0-2.52-.68-2.76-2.04-1.42,1.36-3.4,2.04-5.94,2.04-1.75,0-3.14-.46-4.17-1.36-1.03-.91-1.54-2.14-1.54-3.69,0-.48.05-.93.16-1.35.11-.42.24-.78.38-1.08.14-.31.37-.59.69-.85.32-.26.58-.48.79-.66.21-.17.55-.34,1.02-.49.47-.15.82-.27,1.05-.34.23-.08.63-.16,1.2-.25.57-.09.95-.15,1.13-.18.19-.03.57-.08,1.17-.15,1.33-.17,2.24-.32,2.72-.44s.81-.3.99-.54c.15-.17.23-.58.23-1.21,0-1.71-1.16-2.56-3.48-2.56-1.23,0-2.12.23-2.69.69-.57.46-.93,1.24-1.08,2.33h-3.54c.39-3.83,2.87-5.74,7.42-5.74M237.12,15.8c-.37.12-.67.2-.9.23-.23.03-.59.08-1.08.15-.49.06-.82.11-.97.13-.46.06-.82.13-1.08.18-.26.06-.59.15-.97.28-.38.13-.68.29-.89.47-.21.19-.39.44-.54.76-.15.32-.23.7-.23,1.13,0,.81.27,1.43.81,1.87.54.44,1.28.66,2.25.66,1.66,0,2.94-.45,3.84-1.35.5-.5.76-1.48.76-2.92v-2c-.28.15-.61.29-.98.41"/>
      <path class="cls-1" d="M254.81,11.88c-.22-1.79-1.44-2.69-3.68-2.69-.96,0-1.71.17-2.23.53-.53.35-.79.83-.79,1.44,0,.2.02.37.05.52.03.15.1.29.2.41.1.12.19.22.26.31.08.09.21.17.41.26.2.09.35.16.47.21.12.06.32.12.61.2.29.08.51.14.67.18.17.04.43.1.81.18.37.08.66.14.85.18.85.2,1.47.35,1.85.44.38.1.94.29,1.67.59.73.29,1.27.6,1.62.92.35.32.67.76.97,1.31.29.56.44,1.2.44,1.92,0,1.71-.67,3.06-2,4.07s-3.13,1.51-5.38,1.51c-2.41,0-4.26-.5-5.55-1.51s-1.98-2.47-2.07-4.4h3.58c.2,2.12,1.57,3.18,4.1,3.18,1.1,0,1.98-.22,2.64-.67.67-.45,1-1.05,1-1.79,0-.37-.08-.69-.25-.95s-.43-.49-.8-.67c-.37-.18-.73-.33-1.07-.43-.34-.1-.79-.21-1.36-.35l-.2-.03s-.1-.04-.16-.05c-.07-.01-.13-.03-.2-.05-2.41-.59-3.94-1.05-4.59-1.38-1.55-.74-2.33-1.98-2.33-3.71,0-1.6.61-2.85,1.84-3.76,1.23-.91,2.92-1.36,5.09-1.36s3.78.45,5.1,1.35c1.32.9,1.99,2.25,1.99,4.07h-3.58Z"/>
      <path class="cls-2" d="M5.09,65.13h.54c2.03,0,2.61-.49,3.19-2.66l1.49-5.35,1.48-4.45h-.18c-1.26,2.07-3.28,4.32-6.12,4.32-3.65,0-5.49-2.74-5.49-6.88,0-6.57,5.13-12.91,10.31-12.91,3.51,0,4.45,2.61,4.9,5h.18c.72-.81,2.93-3.56,3.69-5.09h1.12l-7.02,25.47c-.58,2.03-.27,2.57,1.71,2.57h.81l-.22.76H4.91l.18-.76ZM13.73,43.03c.09-3.06-1.08-4.86-2.79-4.86-2.25,0-4.59,3.1-5.76,8.68-.27,1.31-.59,3.15-.59,4.81-.05,2.7.72,4.01,2.21,4.01,2.92,0,6.7-6.75,6.93-12.65"/>
      <path class="cls-2" d="M19.98,53.34c0-1.39.54-3.15.99-4.36l2.74-7.74c.23-.72.32-1.4.32-1.76,0-.81-.63-1.08-1.98-1.08h-1.53l.23-.67,7.92-.41c.04,1.4-.18,2.83-1.17,5.67l-2.2,6.08c-.41,1.08-1.17,3.28-1.17,4.5,0,.85.22,1.48,1.12,1.48,2.56,0,6.7-6.25,8.1-10.8l1.93-6.48h4.37l-3.96,12.78c-.31.95-.72,2.39-.72,3.2,0,.9.27,1.26.9,1.26.9,0,2.21-1.26,3.96-4.18l.58.4c-1.71,3.38-3.83,5.76-6.53,5.76-2.2,0-2.92-1.4-2.92-3.06,0-.72.23-1.71.54-2.61l.54-1.58-.14-.05c-2.57,4.46-5.31,7.29-8.42,7.29-2.34,0-3.51-1.48-3.51-3.65"/>
      <path class="cls-2" d="M40.8,49.83c.09-6.07,5.62-12.82,12.01-12.82,2.92,0,4.77,1.62,4.77,4.1-.05,4.18-5.67,6.07-12.06,7.33-.04.45-.09.99-.09,1.53,0,3.87,1.4,5.62,3.51,5.62,1.94,0,4.46-1.44,6.62-4.41l.58.45c-2.38,3.28-5.31,5.45-8.91,5.45s-6.48-2.7-6.43-7.25M53.72,40.87c.04-2.2-.9-3.01-1.94-3.01-2.43,0-5.49,4.32-6.16,9.76,5.44-1.22,7.96-2.92,8.1-6.75"/>
      <path class="cls-2" d="M60.82,61.3c0-2.52,3.06-3.87,6.84-4.32v-.09c-2.29-.54-3.47-1.66-3.47-3.06,0-1.49,1.44-2.84,4.46-4.05-1.4-1.17-2.25-3.01-2.25-4.99,0-4.41,3.82-7.78,8.19-7.78,1.98,0,3.6.63,4.77,1.67,1.12-1.62,2.57-2.84,4-2.84,1.35,0,2.34.81,2.34,2.34,0,1.08-.86,1.84-1.75,1.84-.94,0-1.71-.67-1.58-1.98.05-.27.23-.63-.18-.63-.54,0-1.49.77-2.25,1.8,1.17,1.17,1.89,2.65,1.89,4.23,0,4.45-3.82,7.87-8.37,7.87-1.71,0-3.1-.45-4.05-.99-1.21.49-1.75,1.12-1.75,1.85,0,.68.85,1.17,5.17,1.89,5.26.86,7.56,2.57,7.56,5.54,0,3.78-4.1,6.39-9.4,6.39-5.62,0-10.17-1.66-10.17-4.68M77.65,61.26c0-2.43-3.15-3.69-7.78-3.69-3.29,0-5.45,1.49-5.45,3.74s2.43,3.91,6.75,3.91c2.7,0,6.48-1.08,6.48-3.96M77.56,41.91c.04-2.2-.68-4.18-2.48-4.18-2.47,0-4.32,4.1-4.36,8.28,0,3.01.9,4.59,2.52,4.59,2.79,0,4.27-4.9,4.32-8.69"/>
      <path class="cls-2" d="M82.94,50.23c0-6.88,5.22-13.05,10.44-13.05,2.79,0,4.05,2.07,4.59,4.55h.18c.9-.94,2.66-3.01,3.6-4.68h1.12l-3.96,13.54c-.32,1.08-.63,2.34-.63,2.93,0,.81.18,1.26.9,1.26.9,0,2.21-1.17,3.96-4.09l.54.4c-1.71,3.38-3.87,5.89-6.48,5.89-1.98,0-2.88-1.08-2.88-2.97,0-.72.14-1.57.22-1.93h-.04c-1.39,2.56-3.51,4.9-6.35,4.9s-5.22-2.11-5.22-6.75M95.72,47.4c.54-1.84.81-3.6.81-5.08,0-2.66-1.17-4.14-2.61-4.14-3.1,0-5.04,4.91-5.94,9.05-.36,1.71-.54,3.1-.54,4.36,0,2.52.72,4,2.02,4,2.29,0,4.9-3.87,6.26-8.19"/>
      <path class="cls-2" d="M114.34,53.74c0-.85.27-2.02.67-3.06l2.07-5.53c.4-1.03,1.31-3.19,1.31-4.5,0-.81-.22-1.48-1.12-1.48-2.57,0-6.84,6.52-8.06,10.8l-1.98,6.75h-4.37l4.82-15.7c.18-.59.27-1.12.27-1.49,0-.81-.4-1.17-2.07-1.17h-1.44l.22-.67,7.6-.36c0,1.8-.45,3.51-1.21,5.76l-.58,1.62.14.05c2.56-4.41,5.31-7.47,8.41-7.47,2.34,0,3.51,1.44,3.51,3.65,0,1.35-.63,3.15-1.08,4.27l-2.07,5.35c-.31.81-.81,2.34-.81,3.15,0,.85.23,1.3.95,1.3.9,0,2.21-1.26,3.96-4.18l.54.4c-1.71,3.38-3.82,5.76-6.43,5.76-2.21,0-3.24-1.3-3.24-3.24"/>
      <path class="cls-2" d="M124.34,50.23c0-6.88,5.22-13.05,10.44-13.05,2.79,0,4.05,2.07,4.59,4.55h.18c.9-.94,2.65-3.01,3.6-4.68h1.12l-3.96,13.54c-.32,1.08-.63,2.34-.63,2.93,0,.81.18,1.26.9,1.26.9,0,2.21-1.17,3.96-4.09l.54.4c-1.71,3.38-3.87,5.89-6.48,5.89-1.98,0-2.88-1.08-2.88-2.97,0-.72.13-1.57.22-1.93h-.04c-1.39,2.56-3.51,4.9-6.35,4.9s-5.22-2.11-5.22-6.75M137.12,47.4c.54-1.84.81-3.6.81-5.08,0-2.66-1.17-4.14-2.61-4.14-3.1,0-5.04,4.91-5.94,9.05-.36,1.71-.54,3.1-.54,4.36,0,2.52.72,4,2.02,4,2.29,0,4.9-3.87,6.26-8.19"/>
      <path class="cls-2" d="M155.75,53.74c0-.85.27-2.02.67-3.06l2.07-5.53c.4-1.03,1.3-3.19,1.3-4.5,0-.81-.22-1.48-1.12-1.48-2.57,0-6.84,6.52-8.05,10.8l-1.98,6.75h-4.37l4.82-15.7c.18-.59.27-1.12.27-1.49,0-.81-.4-1.17-2.07-1.17h-1.44l.22-.67,7.6-.36c0,1.8-.45,3.51-1.21,5.76l-.59,1.62.14.05c2.56-4.41,5.31-7.47,8.41-7.47,2.34,0,3.51,1.44,3.51,3.65,0,1.35-.63,3.15-1.08,4.27l-2.07,5.35c-.32.81-.81,2.34-.81,3.15,0,.85.23,1.3.95,1.3.9,0,2.21-1.26,3.96-4.18l.54.4c-1.71,3.38-3.82,5.76-6.43,5.76-2.21,0-3.24-1.3-3.24-3.24"/>
      <path class="cls-2" d="M166.03,54.51c0-1.44,1.17-2.65,2.65-2.65,1.39,0,2.61,1.22,2.61,2.65s-1.22,2.61-2.61,2.61c-1.49,0-2.65-1.17-2.65-2.61"/>
    </g>
  </g>
</svg>