<?xml version="1.0" encoding="UTF-8"?>
<svg id="Capa_2" data-name="Capa 2" xmlns="http://www.w3.org/2000/svg" viewBox="0 0 2518.04 547.94">
  <defs>
    <style>
      .cls-1 {
        fill: #fff;
      }
    </style>
  </defs>
  <g id="Capa_1-2" data-name="Capa 1">
    <g>
      <path class="cls-1" d="M673.39,240.91c17.56,12.32,39.96,7.21,51.67-8.81,11.49-15.73,8.97-39.44-7.9-51.48l-176.76-126.11c-10.12-7.22-12.05-20.62-7.95-31.37,3.95-10.36,13.54-17.43,26.2-17.43l266.15.15c26.32.01,46.45,21.79,46.45,47.66l.08,442.06c0,27.34-19.98,49.41-47.8,49.35l-83.94-.2c-21.76-.05-43.32-6.82-61.3-19.43L9.94,54.53C.27,47.64-2.06,34.83,1.72,24.07,4.81,15.27,13.65,5.81,25.53,5.8l283.26-.07c17.29,0,33.93,3.22,48.17,13.21l316.43,221.96Z"/>
      <g>
        <path class="cls-1" d="M1047.76,5.81l54.66,170.82,55.35-170.82h55.34l-80.97,243.25h-60.47L992.07,5.81h55.69Z"/>
        <path class="cls-1" d="M1288.58,249.06h-53.64V5.81h53.64v243.25Z"/>
        <path class="cls-1" d="M1507.35,227.88c-18.68,17.99-44.3,26.99-76.87,26.99-35.31,0-63.72-11.68-85.24-35.02-21.52-23.35-32.29-54.27-32.29-92.75,0-36.45,10.87-66.74,32.63-90.88,21.75-24.15,50.73-36.22,86.95-36.22,28.93,0,53.18,8.2,72.77,24.6,19.59,16.4,30.4,37.24,32.46,62.52h-52.27c-2.73-13.44-8.82-23.86-18.28-31.26-9.45-7.4-21.35-11.11-35.7-11.11s-27.27,4.16-37.41,12.47c-10.13,8.31-17.25,18.5-21.35,30.58-4.1,12.07-6.15,25.28-6.15,39.63,0,25.05,5.81,45.04,17.42,59.96,11.62,14.92,27.22,22.38,46.81,22.38,32.57,0,51.14-18.22,55.69-54.66h52.95c-2.73,30.52-13.44,54.78-32.12,72.77Z"/>
        <path class="cls-1" d="M1737.61,51.25h-73.11v197.81h-53.64V51.25h-73.11V5.81h199.86v45.44Z"/>
        <path class="cls-1" d="M1934.94,35.36c21.98,23.57,32.97,54.38,32.97,92.41s-10.99,68.73-32.97,92.07c-21.98,23.35-50.85,35.02-86.61,35.02s-65.03-11.68-87.12-35.02c-22.09-23.35-33.14-54.04-33.14-92.07s10.99-69.41,32.97-92.75c21.98-23.35,51.19-35.02,87.63-35.02s64.29,11.79,86.27,35.36ZM1799.99,66.28c-11.96,15.03-17.94,35.19-17.94,60.47s5.92,46.69,17.77,61.5c11.84,14.8,28.13,22.31,48.85,22.54,20.27,0,36.22-7.51,47.83-22.54,11.61-15.04,17.42-35.53,17.42-61.5s-5.92-45.72-17.77-60.64c-11.84-14.91-27.9-22.38-48.17-22.38s-36.05,7.52-48,22.55Z"/>
        <path class="cls-1" d="M2109.09,5.81c24.14,0,43.84,5.69,59.1,17.09,15.26,11.39,22.89,28.69,22.89,51.93,0,14.12-3.42,26.48-10.25,37.07-6.83,10.59-16.28,18.16-28.36,22.72,20.96,4.33,32.91,23.23,35.88,56.71,0,1.14.22,4.67.68,10.59.46,5.92.91,10.65,1.37,14.18s1.02,7.8,1.71,12.81c.68,5.01,1.71,9.23,3.07,12.64,1.37,3.42,2.96,5.93,4.78,7.52h-55.35c-1.82-3.65-3.19-8.26-4.1-13.83-.91-5.58-1.71-12.76-2.39-21.53-.68-8.77-1.03-13.61-1.03-14.52-1.82-17.09-6.09-28.93-12.81-35.53-6.72-6.61-18.62-9.91-35.7-9.91h-47.49v95.32h-52.95V5.81h120.94ZM2041.1,115.14h50.56c14.81,0,26.36-2.34,34.68-7.01,8.31-4.67,12.47-13.83,12.47-27.5,0-12.76-4.04-21.42-12.13-25.97-8.08-4.56-18.96-6.83-32.62-6.83h-52.95v67.3Z"/>
        <path class="cls-1" d="M2265.74,249.06h-53.64V5.81h53.64v243.25Z"/>
        <path class="cls-1" d="M2518.04,249.06h-56.03l-19.13-54.32h-90.54l-19.81,54.32h-54.66l92.59-243.6h55l92.59,243.6ZM2397.78,65.26l-32.46,90.53h64.57l-32.12-90.53Z"/>
        <path class="cls-1" d="M1183.73,520.94c-18.68,17.99-44.3,26.99-76.87,26.99-35.31,0-63.72-11.68-85.24-35.02-21.52-23.35-32.29-54.27-32.29-92.75,0-36.45,10.87-66.74,32.63-90.88,21.75-24.15,50.73-36.22,86.95-36.22,28.93,0,53.18,8.2,72.77,24.6,19.59,16.4,30.4,37.24,32.46,62.52h-52.27c-2.73-13.44-8.82-23.86-18.28-31.26-9.45-7.41-21.35-11.11-35.7-11.11s-27.27,4.16-37.41,12.47c-10.13,8.31-17.25,18.51-21.35,30.58-4.1,12.07-6.15,25.28-6.15,39.63,0,25.05,5.81,45.04,17.42,59.96,11.62,14.92,27.22,22.38,46.81,22.38,32.57,0,51.14-18.22,55.69-54.66h52.95c-2.73,30.52-13.44,54.78-32.12,72.77Z"/>
        <path class="cls-1" d="M1355.88,298.87c24.14,0,43.84,5.69,59.1,17.09,15.26,11.39,22.89,28.69,22.89,51.93,0,14.12-3.42,26.48-10.25,37.07-6.83,10.59-16.28,18.16-28.36,22.72,20.96,4.33,32.91,23.23,35.88,56.71,0,1.14.22,4.67.68,10.59s.91,10.65,1.37,14.18c.46,3.53,1.02,7.8,1.71,12.81.68,5.01,1.71,9.23,3.07,12.64,1.37,3.42,2.96,5.93,4.78,7.52h-55.35c-1.82-3.65-3.19-8.26-4.1-13.83-.91-5.58-1.71-12.76-2.39-21.53-.68-8.77-1.03-13.61-1.03-14.52-1.82-17.09-6.09-28.93-12.81-35.53-6.72-6.61-18.62-9.91-35.7-9.91h-47.49v95.32h-52.95v-243.25h120.94ZM1287.9,408.2h50.56c14.81,0,26.36-2.34,34.68-7.01,8.31-4.67,12.47-13.83,12.47-27.5,0-12.76-4.04-21.42-12.13-25.97-8.08-4.56-18.96-6.83-32.62-6.83h-52.95v67.3Z"/>
        <path class="cls-1" d="M1641.32,342.61h-129.48v52.95h118.89v42.02h-118.89v59.79h129.48v44.75h-182.44v-243.25h182.44v43.73Z"/>
        <path class="cls-1" d="M1891.98,542.3h-56.03l-19.13-54.32h-90.54l-19.81,54.32h-54.66l92.59-243.6h55l92.59,243.6ZM1771.72,358.49l-32.46,90.53h64.57l-32.12-90.53Z"/>
      </g>
    </g>
  </g>
</svg>